<svg width="111" height="23" viewBox="0 0 111 23" fill="none" xmlns="http://www.w3.org/2000/svg">
<g clip-path="url(#clip0_196_5590)">
<path d="M25.8008 3.66251V2.74049H25.9419C25.9882 2.71047 26.0292 2.67297 26.0632 2.62955C26.0992 2.58914 26.1303 2.54456 26.1557 2.49677C26.1872 2.4358 26.2069 2.3695 26.2138 2.30131L26.3596 0.959473H27.8466V2.74049H28.1383V3.66251H27.7154V3.1508H26.2237V3.66251H25.8008ZM27.4094 2.74049V1.36977H26.7435L26.6417 2.30131C26.6371 2.3691 26.6223 2.43581 26.5978 2.49924C26.5798 2.54496 26.557 2.58864 26.5297 2.62955C26.5067 2.67091 26.4771 2.70837 26.4422 2.74049L27.4094 2.74049Z" fill="#3F3124"/>
<path d="M28.8916 3.15079V2.78384H28.9501C28.9968 2.78723 29.0438 2.78107 29.0881 2.76574C29.1324 2.75041 29.173 2.72624 29.2075 2.6947C29.2729 2.61674 29.309 2.51864 29.3096 2.41717L29.4309 0.959473H30.9764V3.15079H30.5389V1.35532H29.8099L29.7372 2.44115C29.7349 2.64114 29.6607 2.83373 29.528 2.98421C29.4658 3.04765 29.3908 3.09739 29.308 3.13022C29.2252 3.16304 29.1363 3.17822 29.0472 3.17476C28.9945 3.17414 28.9421 3.16607 28.8916 3.15079Z" fill="#3F3124"/>
<path d="M32.0938 3.15065L32.604 2.33989C32.5268 2.30497 32.4554 2.25854 32.3923 2.2022C32.3321 2.14306 32.2821 2.07454 32.2441 1.99936C32.1957 1.89945 32.1724 1.78933 32.1764 1.6785C32.1753 1.58086 32.1943 1.48403 32.2321 1.3939C32.2685 1.30819 32.3223 1.23087 32.3902 1.16679C32.4604 1.10096 32.5429 1.04939 32.6331 1.01496C32.7338 0.976571 32.8411 0.957689 32.949 0.959327H33.9159V3.15065H33.4787V2.39767H33.0557L32.5795 3.15065L32.0938 3.15065ZM33.4883 2.00673V1.35026H32.9681C32.9199 1.3496 32.872 1.3587 32.8274 1.377C32.786 1.3941 32.7481 1.41857 32.7157 1.44922C32.6836 1.47933 32.658 1.51549 32.6402 1.55557C32.6228 1.59427 32.6137 1.63613 32.6136 1.6785C32.6132 1.72172 32.6223 1.7645 32.6402 1.8039C32.6583 1.84305 32.684 1.87832 32.7157 1.90777C32.7481 1.93852 32.786 1.96311 32.8274 1.9803C32.872 1.99836 32.9199 2.00735 32.9681 2.00673L33.4883 2.00673Z" fill="#3F3124"/>
<path d="M37.1817 2.47984C37.1905 2.55662 37.2267 2.62771 37.2838 2.68023C37.3202 2.71347 37.3621 2.74039 37.4075 2.75983C37.4669 2.78405 37.5306 2.79557 37.5947 2.79364C37.6932 2.79976 37.7903 2.76869 37.8667 2.70666C37.8969 2.68203 37.9213 2.65108 37.9382 2.61603C37.955 2.58097 37.9639 2.54266 37.9642 2.50382C37.9639 2.46664 37.9552 2.43 37.9387 2.3966C37.9223 2.3632 37.8985 2.33388 37.8692 2.31081C37.7908 2.2512 37.6932 2.22203 37.5947 2.22875H37.3905V1.85226H37.5947C37.6791 1.85648 37.762 1.82992 37.828 1.77759C37.8558 1.75514 37.8781 1.72676 37.8932 1.69456C37.9084 1.66237 37.916 1.62718 37.9156 1.59164C37.9167 1.55462 37.9094 1.51783 37.8942 1.48399C37.8791 1.45016 37.8565 1.42014 37.828 1.39618C37.762 1.34384 37.6791 1.31728 37.5947 1.3215C37.5343 1.31958 37.4741 1.32939 37.4174 1.35038C37.3744 1.36715 37.3349 1.39163 37.3008 1.42261C37.2718 1.44908 37.2487 1.4812 37.2327 1.51696C37.2197 1.5453 37.2108 1.5753 37.2061 1.60609H36.7881C36.7963 1.51197 36.8201 1.41984 36.8587 1.33348C36.8952 1.25223 36.95 1.18041 37.0189 1.12357C37.0933 1.06295 37.1781 1.01629 37.2693 0.98588C37.3757 0.950605 37.4875 0.933462 37.5997 0.935175C37.7025 0.933949 37.8046 0.951984 37.9007 0.988336C38.0702 1.05223 38.2086 1.17831 38.2872 1.34055C38.3239 1.41586 38.3431 1.49843 38.3432 1.58212C38.3452 1.65268 38.331 1.72278 38.3017 1.78711C38.2785 1.83698 38.2483 1.88333 38.212 1.9248C38.1729 1.9674 38.1269 2.00323 38.0759 2.03083C38.1347 2.06353 38.1886 2.10418 38.2361 2.15161C38.2791 2.19592 38.3152 2.24637 38.3432 2.30129C38.3766 2.36709 38.3933 2.43999 38.3918 2.51366C38.3921 2.60193 38.373 2.6892 38.3358 2.76936C38.2987 2.84964 38.2449 2.92118 38.178 2.97927C38.105 3.04177 38.021 3.09014 37.9301 3.12188C37.824 3.15863 37.7121 3.17652 37.5997 3.17475C37.4842 3.17651 37.3693 3.15948 37.2593 3.12434C37.1646 3.09374 37.077 3.04439 37.0019 2.97927C36.932 2.91842 36.8757 2.84366 36.8367 2.75984C36.7965 2.6713 36.7718 2.57662 36.7637 2.47985L37.1817 2.47984Z" fill="#3F3124"/>
<path d="M39.2461 3.66251V2.74049H39.3872C39.4336 2.71039 39.4747 2.67291 39.5088 2.62955C39.5447 2.58905 39.5756 2.54448 39.601 2.49677C39.6325 2.4358 39.6522 2.3695 39.6591 2.30131L39.8052 0.959473H41.2919V2.74049H41.5837V3.66251H41.1607V3.1508H39.6691V3.66251H39.2461ZM40.8547 2.74049V1.36977H40.1889L40.0871 2.30131C40.0824 2.3691 40.0676 2.43581 40.0431 2.49924C40.0252 2.54496 40.0023 2.58864 39.9751 2.62955C39.952 2.67091 39.9224 2.70837 39.8875 2.74049L40.8547 2.74049Z" fill="#3F3124"/>
<path d="M43.1631 3.09042C43.0357 3.03577 42.9208 2.95611 42.8252 2.85624C42.7274 2.75325 42.65 2.63294 42.5969 2.50157C42.5392 2.35973 42.5103 2.20798 42.5118 2.05501C42.5102 1.90283 42.5391 1.75186 42.5969 1.6109C42.6509 1.47999 42.7282 1.35984 42.8252 1.25624C42.9204 1.15524 43.0354 1.0747 43.1631 1.01959C43.2917 0.963452 43.4307 0.93466 43.5712 0.935066C43.711 0.934536 43.8493 0.963339 43.9771 1.01959C44.1043 1.07555 44.219 1.15598 44.3147 1.25624C44.4127 1.35905 44.4902 1.4794 44.543 1.6109C44.5993 1.75223 44.6273 1.90306 44.6257 2.05501C44.6272 2.20775 44.5991 2.35936 44.543 2.50157C44.4911 2.63354 44.4135 2.75405 44.3147 2.85624C44.2186 2.95537 44.1039 3.03492 43.9771 3.09043C43.8493 3.14668 43.711 3.17548 43.5712 3.17494C43.4307 3.17535 43.2917 3.14656 43.1631 3.09042ZM43.8045 2.71394C43.8795 2.6798 43.9465 2.6305 44.0013 2.56919C44.06 2.50311 44.1061 2.42698 44.1374 2.34452C44.2055 2.15743 44.2055 1.95258 44.1374 1.76549C44.106 1.68307 44.0599 1.60696 44.0013 1.54083C43.9465 1.47951 43.8795 1.43021 43.8045 1.39607C43.7313 1.36257 43.6517 1.34527 43.5712 1.34537C43.4891 1.3449 43.4079 1.3622 43.3332 1.39607C43.2582 1.43021 43.1912 1.47951 43.1365 1.54083C43.0777 1.60688 43.0316 1.68301 43.0003 1.76549C42.9323 1.95258 42.9323 2.15743 43.0003 2.34452C43.0315 2.42704 43.0776 2.50318 43.1365 2.56919C43.1912 2.6305 43.2582 2.6798 43.3332 2.71394C43.4079 2.74781 43.4891 2.76512 43.5712 2.76465C43.6517 2.76475 43.7313 2.74745 43.8045 2.71394Z" fill="#3F3124"/>
<path d="M45.7627 3.92291V0.959248H46.0832L46.1807 1.19098C46.2327 1.14329 46.2897 1.10116 46.3506 1.06528C46.4148 1.02918 46.4823 0.99933 46.5523 0.976152C46.6425 0.947095 46.7369 0.933176 46.8317 0.934968C46.9683 0.934447 47.1034 0.963281 47.2277 1.01949C47.3511 1.07506 47.4624 1.15374 47.5557 1.25123C47.652 1.35317 47.7272 1.47295 47.7769 1.60373C47.8838 1.89526 47.8838 2.21486 47.7769 2.50639C47.7269 2.63764 47.6517 2.75806 47.5557 2.86105C47.4634 2.95968 47.3518 3.03854 47.2277 3.09278C47.103 3.14749 46.9681 3.17545 46.8317 3.17484C46.7394 3.17656 46.6474 3.16263 46.5597 3.13367C46.4912 3.11068 46.4251 3.08082 46.3626 3.04454C46.3034 3.00762 46.2488 2.96388 46.1999 2.91422V3.92291L45.7627 3.92291ZM47.031 2.71384C47.1079 2.68052 47.1767 2.63116 47.2327 2.56909C47.2916 2.50272 47.3384 2.4267 47.371 2.34442C47.4078 2.25234 47.426 2.15397 47.4245 2.05491C47.4258 1.95609 47.4085 1.8579 47.3735 1.76539C47.3419 1.68256 47.295 1.60636 47.2352 1.54073C47.1777 1.47865 47.1078 1.42919 47.0299 1.39553C46.9521 1.36187 46.868 1.34475 46.7831 1.34527C46.6995 1.34515 46.6168 1.36242 46.5402 1.39597C46.4632 1.42913 46.3944 1.47852 46.3385 1.54073C46.2799 1.60685 46.2337 1.68297 46.2024 1.76539C46.1343 1.95248 46.1343 2.15733 46.2024 2.34442C46.2338 2.42736 46.2809 2.5036 46.341 2.56909C46.3975 2.63055 46.4662 2.67982 46.5427 2.71384C46.6183 2.74754 46.7003 2.76483 46.7831 2.76455C46.8684 2.76502 46.9528 2.74775 47.031 2.71384Z" fill="#3F3124"/>
<path d="M49.5146 3.09042C49.3873 3.03577 49.2724 2.95611 49.1768 2.85624C49.079 2.75325 49.0015 2.63294 48.9484 2.50157C48.8908 2.35973 48.8619 2.20798 48.8633 2.05501C48.8617 1.90283 48.8907 1.75186 48.9484 1.6109C49.0024 1.47999 49.0798 1.35984 49.1768 1.25624C49.2719 1.15524 49.3869 1.0747 49.5146 1.01959C49.6433 0.963452 49.7823 0.93466 49.9227 0.935066C50.0625 0.934536 50.2009 0.963339 50.3287 1.01959C50.4558 1.07555 50.5706 1.15598 50.6663 1.25624C50.7643 1.35905 50.8418 1.4794 50.8946 1.6109C50.9508 1.75223 50.9789 1.90306 50.9772 2.05501C50.9788 2.20775 50.9507 2.35936 50.8946 2.50157C50.8427 2.63354 50.7651 2.75405 50.6663 2.85624C50.5701 2.95537 50.4555 3.03492 50.3287 3.09043C50.2009 3.14668 50.0625 3.17548 49.9227 3.17494C49.7823 3.17535 49.6433 3.14656 49.5146 3.09042ZM50.1561 2.71394C50.2311 2.6798 50.2981 2.6305 50.3528 2.56919C50.4115 2.50311 50.4577 2.42698 50.489 2.34452C50.557 2.15743 50.557 1.95258 50.489 1.76549C50.4576 1.68307 50.4115 1.60696 50.3528 1.54083C50.2981 1.47951 50.2311 1.43021 50.1561 1.39607C50.0829 1.36257 50.0033 1.34527 49.9227 1.34537C49.8407 1.3449 49.7595 1.36221 49.6848 1.39607C49.6098 1.43021 49.5428 1.47951 49.488 1.54083C49.4293 1.60688 49.3831 1.68301 49.3519 1.76549C49.2838 1.95258 49.2838 2.15743 49.3519 2.34452C49.3831 2.42704 49.4292 2.50318 49.488 2.56919C49.5428 2.6305 49.6098 2.6798 49.6848 2.71394C49.7595 2.74781 49.8407 2.76512 49.9227 2.76465C50.0033 2.76475 50.0829 2.74745 50.1561 2.71394Z" fill="#3F3124"/>
<path d="M52.1143 3.15059V0.959273H53.1251C53.2163 0.958286 53.3068 0.973805 53.3924 1.00507C53.4684 1.03236 53.5378 1.07499 53.5963 1.13027C53.6548 1.18554 53.7012 1.25227 53.7325 1.32623C53.765 1.40081 53.7815 1.4813 53.781 1.56258C53.783 1.63296 53.7698 1.70295 53.7424 1.76788C53.6961 1.86804 53.6196 1.95147 53.5236 2.00668C53.6474 2.06035 53.7469 2.15754 53.803 2.27959C53.8393 2.35564 53.8568 2.4392 53.8541 2.52332C53.8545 2.60777 53.838 2.69147 53.8055 2.7695C53.7744 2.84475 53.728 2.91285 53.6693 2.96957C53.61 3.02683 53.5398 3.07194 53.463 3.10234C53.3787 3.13545 53.2887 3.15185 53.1981 3.15059L52.1143 3.15059ZM52.5518 1.86192H53.057C53.1336 1.86577 53.2086 1.83974 53.2662 1.78939C53.2915 1.76611 53.3115 1.73772 53.3249 1.70613C53.3383 1.67454 53.3448 1.64048 53.3438 1.60622C53.3453 1.57002 53.3391 1.53393 53.3257 1.50022C53.3124 1.46652 53.2921 1.43595 53.2662 1.41044C53.238 1.38487 53.205 1.36511 53.1691 1.35229C53.1332 1.33947 53.0951 1.33385 53.057 1.33576H52.5518V1.86192ZM52.5518 2.77901H53.13C53.1683 2.77909 53.2063 2.77167 53.2417 2.7572C53.2768 2.74314 53.3089 2.72271 53.3364 2.69696C53.3641 2.67098 53.385 2.63871 53.3974 2.60291C53.4101 2.56643 53.4167 2.52812 53.4169 2.48951C53.4167 2.454 53.4101 2.41881 53.3974 2.38562C53.3845 2.35212 53.3636 2.32226 53.3364 2.29864C53.3083 2.27428 53.2763 2.25475 53.2417 2.24087C53.2063 2.22639 53.1684 2.21897 53.13 2.21904H52.5518V2.77901Z" fill="#3F3124"/>
<path d="M54.9902 3.15079V0.959473H55.4277V1.71736H55.9429C56.0498 1.71564 56.156 1.73356 56.2563 1.77023C56.3443 1.80299 56.4246 1.85329 56.4923 1.91803C56.56 1.98278 56.6136 2.0606 56.6499 2.14671C56.707 2.28016 56.7227 2.42751 56.695 2.56988C56.6673 2.71225 56.5974 2.84315 56.4943 2.94579C56.4266 3.01248 56.3455 3.06422 56.2563 3.09763C56.1561 3.13454 56.0498 3.15256 55.9429 3.15079L54.9902 3.15079ZM55.4277 2.75986H55.9185C55.9658 2.76013 56.0127 2.7519 56.0571 2.73558C56.0991 2.72055 56.1378 2.69771 56.1712 2.66828C56.2032 2.63959 56.2282 2.60407 56.2443 2.56439C56.2607 2.52206 56.2689 2.477 56.2684 2.43162C56.2684 2.38993 56.2593 2.34873 56.2418 2.31083C56.2235 2.27183 56.1979 2.23667 56.1663 2.20727C56.1338 2.17658 56.0959 2.15201 56.0546 2.13473C56.0099 2.11668 55.962 2.10769 55.9138 2.1083H55.4277L55.4277 2.75986Z" fill="#3F3124"/>
<path d="M57.6396 3.15065L58.1499 2.33989C58.0727 2.30497 58.0013 2.25854 57.9382 2.2022C57.878 2.14306 57.828 2.07454 57.79 1.99936C57.7416 1.89945 57.7183 1.78933 57.7223 1.6785C57.7212 1.58086 57.7401 1.48403 57.778 1.3939C57.8143 1.30819 57.8682 1.23087 57.9361 1.16679C58.0063 1.10096 58.0888 1.04939 58.1789 1.01496C58.2797 0.976571 58.3869 0.957689 58.4948 0.959327H59.4617V3.15065H59.0246V2.39767H58.6016L58.1254 3.15065L57.6396 3.15065ZM59.0342 2.00673V1.35026H58.5143C58.466 1.34957 58.418 1.35867 58.3732 1.377C58.3319 1.3941 58.294 1.41857 58.2616 1.44922C58.2295 1.47933 58.2039 1.51548 58.1861 1.55557C58.1687 1.59427 58.1596 1.63613 58.1595 1.6785C58.1591 1.72172 58.1682 1.7645 58.1861 1.8039C58.2042 1.84305 58.2299 1.87833 58.2616 1.90777C58.294 1.93852 58.3319 1.96311 58.3732 1.9803C58.418 1.99839 58.466 2.00737 58.5143 2.00673L59.0342 2.00673Z" fill="#3F3124"/>
<path d="M62.4844 3.15079V0.959473H62.9218V2.49438L63.9763 0.959473H64.4039V3.15079H63.9663V1.61599L62.9119 3.15079H62.4844Z" fill="#3F3124"/>
<path d="M67.4209 3.92292V0.959252H67.7414L67.8389 1.19098C67.891 1.1433 67.9479 1.10117 68.0088 1.06529C68.073 1.02919 68.1405 0.999336 68.2105 0.976155C68.3007 0.947076 68.3951 0.933156 68.4899 0.934972C68.6265 0.934451 68.7616 0.963285 68.886 1.0195C69.0093 1.07506 69.1206 1.15375 69.2139 1.25123C69.3102 1.35317 69.3854 1.47295 69.4351 1.60373C69.542 1.89526 69.542 2.21487 69.4351 2.50639C69.3851 2.63765 69.3099 2.75807 69.2139 2.86106C69.1216 2.95968 69.01 3.03854 68.886 3.09279C68.7612 3.1475 68.6263 3.17546 68.4899 3.17485C68.3976 3.17656 68.3056 3.16264 68.2179 3.13367C68.1494 3.11069 68.0833 3.08082 68.0208 3.04454C67.9616 3.00763 67.907 2.96388 67.8581 2.91423V3.92291L67.4209 3.92292ZM68.6892 2.71384C68.7661 2.68053 68.8349 2.63116 68.8909 2.56909C69.0167 2.4272 69.0851 2.24399 69.0827 2.05491C69.084 1.95609 69.0667 1.8579 69.0317 1.7654C69.0001 1.68257 68.9532 1.60636 68.8934 1.54073C68.8359 1.47865 68.766 1.4292 68.6882 1.39554C68.6103 1.36187 68.5262 1.34475 68.4413 1.34527C68.3577 1.34515 68.275 1.36243 68.1984 1.39598C68.1214 1.42914 68.0526 1.47853 67.9967 1.54073C67.9381 1.60686 67.892 1.68297 67.8606 1.7654C67.7925 1.95248 67.7925 2.15733 67.8606 2.34442C67.892 2.42736 67.9391 2.50361 67.9992 2.56909C68.0557 2.63062 68.1244 2.6799 68.2009 2.71384C68.2765 2.74757 68.3585 2.76486 68.4413 2.76455C68.5266 2.76503 68.611 2.74775 68.6892 2.71384Z" fill="#3F3124"/>
<path d="M72.0427 3.15078L71.9455 2.91904C71.8624 3.00101 71.7632 3.06513 71.654 3.10744C71.5412 3.1523 71.4207 3.17525 71.2991 3.17506C71.1949 3.17659 71.0912 3.15941 70.9932 3.12435C70.9079 3.09386 70.8295 3.04709 70.7623 2.98666C70.6998 2.92967 70.6494 2.8608 70.6141 2.78412C70.5782 2.70526 70.5599 2.61959 70.5606 2.53302C70.5593 2.43274 70.5817 2.33356 70.6262 2.24351C70.6772 2.14881 70.7538 2.07014 70.8474 2.01639C70.9761 1.94288 71.1167 1.89233 71.2629 1.86702C71.4785 1.82798 71.6974 1.81017 71.9164 1.81385H71.931V1.73671C71.9321 1.68361 71.9221 1.63085 71.9016 1.5818C71.8811 1.53275 71.8505 1.48848 71.8118 1.45181C71.7709 1.41293 71.7225 1.38264 71.6695 1.36273C71.6165 1.34283 71.56 1.33372 71.5034 1.33594C71.412 1.32627 71.3203 1.35048 71.2458 1.40392C71.1713 1.45736 71.1194 1.53626 71.0999 1.62545H70.6482C70.6603 1.53162 70.6899 1.44085 70.7354 1.35776C70.7811 1.27538 70.8412 1.20178 70.913 1.14047C70.9905 1.07509 71.0795 1.02436 71.1754 0.990799C71.2871 0.952236 71.4047 0.933409 71.5229 0.935172C71.6392 0.934018 71.7547 0.955421 71.8629 0.998182C71.962 1.03708 72.0527 1.09433 72.1302 1.1669C72.2046 1.23785 72.2634 1.32335 72.3029 1.418C72.3438 1.51758 72.3644 1.62424 72.3635 1.73179V3.15077L72.0427 3.15078ZM71.931 2.17098H71.9164C71.7589 2.16889 71.6014 2.177 71.4449 2.19526C71.3486 2.20506 71.2544 2.22942 71.1655 2.26749C71.11 2.29036 71.0632 2.33005 71.0318 2.38089C71.0088 2.42654 70.9972 2.47705 70.9981 2.52811C70.9989 2.56486 71.0078 2.60099 71.0241 2.63396C71.0405 2.66694 71.0639 2.69595 71.0928 2.71897C71.1608 2.77704 71.2485 2.80725 71.3381 2.80348C71.4948 2.80475 71.6466 2.74986 71.7657 2.64889C71.816 2.60575 71.8574 2.55323 71.8873 2.4943C71.9162 2.4375 71.9311 2.37474 71.931 2.31113V2.17098Z" fill="#3F3124"/>
<path d="M73.3203 3.66251V2.74049H73.4614C73.5078 2.71047 73.5488 2.67297 73.5827 2.62955C73.6188 2.58914 73.6498 2.54456 73.6752 2.49677C73.7067 2.4358 73.7265 2.3695 73.7334 2.30131L73.8791 0.959473H75.3661V2.74049H75.6579V3.66251H75.2349V3.1508H73.7433V3.66251H73.3203ZM74.9289 2.74049V1.36977H74.2631L74.1613 2.30131C74.1567 2.3691 74.1418 2.43581 74.1173 2.49924C74.0994 2.54496 74.0766 2.58864 74.0493 2.62955C74.0262 2.67091 73.9966 2.70837 73.9617 2.74049L74.9289 2.74049Z" fill="#3F3124"/>
<path d="M77.2373 3.09042C77.1099 3.03577 76.995 2.95611 76.8994 2.85624C76.8016 2.75325 76.7242 2.63295 76.6711 2.50157C76.6134 2.35973 76.5845 2.20798 76.586 2.05501C76.5844 1.90283 76.6133 1.75185 76.6711 1.6109C76.7251 1.47999 76.8024 1.35984 76.8994 1.25624C76.9946 1.15524 77.1096 1.0747 77.2373 1.01959C77.3659 0.963453 77.5049 0.934661 77.6454 0.935066C77.7852 0.934536 77.9235 0.963339 78.0514 1.01959C78.1785 1.07556 78.2932 1.15599 78.3889 1.25624C78.4869 1.35905 78.5644 1.4794 78.6173 1.6109C78.6735 1.75223 78.7015 1.90306 78.6999 2.05501C78.7014 2.20775 78.6734 2.35936 78.6173 2.50157C78.5653 2.63353 78.4877 2.75405 78.3889 2.85624C78.2928 2.95537 78.1781 3.03491 78.0514 3.09043C77.9235 3.14668 77.7852 3.17548 77.6454 3.17494C77.5049 3.17535 77.3659 3.14656 77.2373 3.09042ZM77.8787 2.71394C77.9537 2.6798 78.0207 2.6305 78.0755 2.56919C78.1342 2.5031 78.1803 2.42698 78.2116 2.34452C78.2797 2.15743 78.2797 1.95258 78.2116 1.76549C78.1802 1.68307 78.1341 1.60696 78.0755 1.54083C78.0207 1.47952 77.9537 1.43021 77.8787 1.39607C77.8056 1.36257 77.726 1.34527 77.6454 1.34537C77.5633 1.3449 77.4821 1.3622 77.4075 1.39607C77.3325 1.43021 77.2654 1.47951 77.2107 1.54083C77.1519 1.60688 77.1058 1.68301 77.0745 1.76549C77.0065 1.95258 77.0065 2.15743 77.0745 2.34452C77.1057 2.42703 77.1519 2.50318 77.2107 2.56918C77.2654 2.6305 77.3325 2.6798 77.4075 2.71393C77.4821 2.74781 77.5633 2.76512 77.6454 2.76465C77.726 2.76475 77.8056 2.74745 77.8787 2.71394Z" fill="#3F3124"/>
<path d="M80.3491 3.09043C80.2227 3.03534 80.1087 2.95572 80.0137 2.85624C79.9159 2.75325 79.8385 2.63294 79.7854 2.50158C79.7277 2.35973 79.6988 2.20798 79.7003 2.05501C79.6986 1.90283 79.7276 1.75186 79.7854 1.61091C79.8394 1.48 79.9167 1.35985 80.0137 1.25624C80.1082 1.15564 80.2223 1.07514 80.3491 1.01959C80.4784 0.963024 80.6183 0.934224 80.7597 0.935077C80.841 0.934656 80.922 0.945307 81.0004 0.966733C81.0753 0.987156 81.1478 1.01538 81.2167 1.05094C81.2843 1.08635 81.347 1.13014 81.4035 1.18125C81.4595 1.23217 81.5107 1.28791 81.5567 1.34783C81.602 1.40764 81.6403 1.4724 81.6709 1.54083C81.701 1.60856 81.7246 1.67894 81.7414 1.75106H81.3039C81.2851 1.69431 81.2582 1.64057 81.2238 1.59155C81.1898 1.54326 81.148 1.50089 81.1 1.46616C81.0512 1.43076 80.998 1.40154 80.9419 1.37918C80.8839 1.35642 80.822 1.34495 80.7597 1.34538C80.6776 1.34491 80.5964 1.36222 80.5217 1.39609C80.4467 1.43022 80.3797 1.47952 80.325 1.54084C80.2662 1.60689 80.2201 1.68302 80.1888 1.76551C80.1207 1.95259 80.1207 2.15745 80.1888 2.34454C80.22 2.42705 80.2662 2.5032 80.325 2.5692C80.3797 2.63052 80.4467 2.67982 80.5217 2.71396C80.5964 2.74782 80.6776 2.76513 80.7597 2.76466C80.8218 2.76514 80.8836 2.75452 80.9419 2.73331C80.9987 2.71242 81.052 2.68309 81.1 2.64634C81.1477 2.61032 81.1894 2.56719 81.2238 2.51848C81.2581 2.46953 81.2851 2.4159 81.3039 2.35927H81.7414C81.7246 2.43129 81.701 2.50157 81.6709 2.56919C81.64 2.63823 81.6017 2.70377 81.5567 2.76465C81.5116 2.8253 81.4603 2.88113 81.4035 2.93124C81.3463 2.98136 81.2836 3.02506 81.2167 3.06154C81.1477 3.09882 81.0741 3.12722 80.9979 3.14607C80.92 3.16525 80.84 3.17495 80.7597 3.17496C80.6183 3.17581 80.4784 3.147 80.3491 3.09043Z" fill="#3F3124"/>
<path d="M83.3014 3.15079V1.36977H82.6309V0.959473H84.4094V1.36977H83.7389V3.15079H83.3014Z" fill="#3F3124"/>
<path d="M85.459 3.15079V0.959473H85.8961V2.49438L86.9509 0.959473H87.3785V3.15079H86.941V1.61599L85.8865 3.15079H85.459Z" fill="#3F3124"/>
<path d="M90.3965 3.15079V0.959473H92.3062V3.15079H91.869V1.36977H90.8337V3.15079H90.3965Z" fill="#3F3124"/>
<path d="M93.584 3.15079V0.959473H94.0211V2.49438L95.0756 0.959473H95.5035V3.15079H95.0659V1.61599L94.0115 3.15079H93.584Z" fill="#3F3124"/>
<path d="M97.2233 3.15079V1.36977H96.5527V0.959473H98.3312V1.36977H97.6607V3.15079H97.2233Z" fill="#3F3124"/>
<path d="M99.8476 3.09042C99.7203 3.03577 99.6054 2.95611 99.5098 2.85624C99.412 2.75325 99.3345 2.63295 99.2814 2.50157C99.2238 2.35973 99.1949 2.20798 99.1964 2.05501C99.1947 1.90283 99.2237 1.75185 99.2814 1.6109C99.3354 1.47999 99.4128 1.35984 99.5098 1.25624C99.6049 1.15524 99.7199 1.0747 99.8476 1.01959C99.9763 0.963453 100.115 0.934661 100.256 0.935066C100.396 0.934536 100.534 0.963339 100.662 1.01959C100.789 1.07556 100.904 1.15599 100.999 1.25624C101.097 1.35905 101.175 1.4794 101.228 1.6109C101.284 1.75223 101.312 1.90306 101.31 2.05501C101.312 2.20775 101.284 2.35936 101.228 2.50157C101.176 2.63353 101.098 2.75405 100.999 2.85624C100.903 2.95537 100.788 3.03491 100.662 3.09043C100.534 3.14668 100.396 3.17548 100.256 3.17494C100.115 3.17535 99.9763 3.14656 99.8476 3.09042ZM100.489 2.71394C100.564 2.6798 100.631 2.6305 100.686 2.56919C100.745 2.5031 100.791 2.42698 100.822 2.34452C100.89 2.15743 100.89 1.95258 100.822 1.76549C100.791 1.68307 100.744 1.60696 100.686 1.54083C100.631 1.47952 100.564 1.43021 100.489 1.39607C100.416 1.36257 100.336 1.34527 100.256 1.34537C100.174 1.3449 100.092 1.36221 100.018 1.39607C99.9427 1.4302 99.8756 1.4795 99.8207 1.54083C99.7622 1.60698 99.7162 1.68309 99.6849 1.76549C99.6168 1.95258 99.6168 2.15743 99.6849 2.34452C99.7161 2.42696 99.7621 2.50309 99.8207 2.56919C99.8756 2.63052 99.9427 2.67982 100.018 2.71394C100.092 2.74781 100.174 2.76512 100.256 2.76465C100.336 2.76475 100.416 2.74745 100.489 2.71394Z" fill="#3F3124"/>
<path d="M102.447 3.15079V0.959473H102.846L103.628 2.57642L104.406 0.959473H104.804V3.15079H104.367V1.88152L103.759 3.15079H103.497L102.885 1.88152V3.15079H102.447Z" fill="#3F3124"/>
<path d="M106.077 3.15079V0.959473H106.514V2.74049H107.501V0.959473H107.938V2.74049H108.23V3.66254H107.812V3.15079H106.077Z" fill="#3F3124"/>
<path d="M110.679 3.15078L110.582 2.91904C110.499 3.00101 110.4 3.06513 110.291 3.10744C110.178 3.1523 110.057 3.17525 109.936 3.17506C109.832 3.17659 109.728 3.15941 109.63 3.12435C109.545 3.09393 109.466 3.04715 109.399 2.98666C109.337 2.92967 109.286 2.8608 109.251 2.78412C109.215 2.70531 109.196 2.6196 109.197 2.53302C109.196 2.43274 109.218 2.33356 109.263 2.24351C109.314 2.14881 109.391 2.07014 109.484 2.01639C109.613 1.94293 109.753 1.89238 109.899 1.86702C110.115 1.828 110.334 1.81019 110.553 1.81385H110.568V1.73671C110.569 1.68361 110.559 1.63085 110.538 1.5818C110.518 1.53275 110.487 1.48848 110.449 1.45181C110.408 1.41295 110.359 1.38268 110.306 1.36277C110.253 1.34287 110.197 1.33375 110.14 1.33594C110.049 1.32627 109.957 1.35048 109.883 1.40393C109.808 1.45737 109.756 1.53626 109.737 1.62545H109.285C109.297 1.53159 109.326 1.4408 109.372 1.35776C109.418 1.27538 109.478 1.20178 109.55 1.14047C109.627 1.07509 109.716 1.02436 109.812 0.990799C109.924 0.952236 110.041 0.933409 110.16 0.935172C110.276 0.934049 110.391 0.95545 110.5 0.998182C110.599 1.03708 110.689 1.09434 110.767 1.1669C110.841 1.23778 110.9 1.32331 110.939 1.418C110.98 1.51753 111.001 1.62421 111 1.73179V3.15078L110.679 3.15078ZM110.568 2.17098H110.553C110.396 2.16888 110.238 2.177 110.082 2.19526C109.985 2.20506 109.891 2.22942 109.802 2.26749C109.747 2.29027 109.7 2.32998 109.669 2.38089C109.645 2.42652 109.634 2.47703 109.635 2.52811C109.635 2.56488 109.644 2.60102 109.661 2.63399C109.677 2.66696 109.701 2.69596 109.729 2.71897C109.798 2.77704 109.885 2.80725 109.975 2.80348C110.131 2.80475 110.283 2.74986 110.402 2.64889C110.453 2.60567 110.494 2.55316 110.524 2.4943C110.553 2.4375 110.568 2.37474 110.568 2.31113V2.17098Z" fill="#3F3124"/>
<path d="M24.3398 21.5181C24.1232 20.9876 23.907 20.4568 23.6913 19.9258L23.0783 18.413C21.0855 13.4959 19.0248 8.41102 17.0053 3.40726C16.9378 3.24006 16.8809 3.20042 16.6875 3.20471C13.8308 3.21393 11.0461 3.21393 8.41152 3.2041H8.40657C8.22557 3.2041 8.1705 3.24221 8.09964 3.41401C6.89358 6.33342 5.67606 9.25129 4.49846 12.0733C3.70484 13.9751 2.91048 15.8767 2.11541 17.7781C1.51485 19.2152 0.9144 20.6524 0.314043 22.0897C0.224935 22.303 0.139227 22.5179 0.0510453 22.7382C0.0340302 22.7803 0.0173263 22.8227 0 22.8654L0.560026 22.8658C2.79487 22.867 5.10583 22.8685 7.37842 22.8581C7.43163 22.8362 7.47656 22.7983 7.50683 22.7496C7.91339 21.649 8.26425 20.6612 8.58016 19.7297C8.6835 19.4251 8.85553 19.3006 9.17329 19.3006H9.17978C11.3623 19.3123 13.5059 19.3123 15.5505 19.3H15.5582C15.8914 19.3 16.07 19.4294 16.1736 19.7453C16.3262 20.2104 16.488 20.6818 16.6442 21.1376C16.8163 21.6379 16.9939 22.1555 17.1603 22.6678C17.2166 22.8418 17.2649 22.8744 17.4549 22.8737C19.3503 22.8658 21.2776 22.8664 23.1408 22.8673L24.8847 22.8676C24.8571 22.7926 24.8333 22.7293 24.8079 22.6666C24.6523 22.2837 24.4963 21.9008 24.3398 21.5181ZM10.32 14.8836L12.2872 9.36869L12.5891 9.39513L14.4861 14.8836H10.32Z" fill="#3F3124"/>
<path d="M41.9186 13.6441C41.6608 14.2176 41.4032 14.7911 41.1457 15.3646C40.1166 17.6613 39.089 19.9588 38.0631 22.2569C38.0452 22.3197 38.0056 22.3741 37.9513 22.4107C37.8969 22.4472 37.8313 22.4635 37.766 22.4567C37.0609 22.449 36.3554 22.4478 35.6503 22.4576C35.5849 22.4648 35.5192 22.4484 35.465 22.4114C35.4107 22.3745 35.3717 22.3195 35.3548 22.2563C34.1983 19.5312 33.0391 16.807 31.8774 14.0839C31.8152 13.9382 31.7493 13.7941 31.6849 13.649C31.6614 13.6506 31.6376 13.6521 31.6141 13.6536V13.9437C31.6141 16.8063 31.6104 19.6689 31.6203 22.5317C31.6212 22.7988 31.5568 22.8756 31.2805 22.8738C29.4773 22.8602 27.6738 22.8667 25.8706 22.8667H25.5791V5.93175H25.8727C28.3545 5.93175 30.1255 5.92683 32.6073 5.91976C32.693 5.9082 32.7801 5.92764 32.8526 5.97452C32.9251 6.0214 32.9783 6.09261 33.0024 6.17516C33.9786 8.38769 36.7434 12.9643 36.8084 13.0912C36.8916 12.9037 39.6126 8.2712 40.5748 6.10048C40.5976 6.05775 40.63 6.0208 40.6695 5.9925C40.709 5.9642 40.7545 5.94531 40.8025 5.93728C43.4093 5.9296 45.3298 5.93328 47.9365 5.93513C47.968 5.94033 47.9988 5.94931 48.0281 5.96187V22.8667H47.737C45.9248 22.8667 44.1126 22.8621 42.3004 22.8722C42.0532 22.8738 41.9869 22.8055 41.9876 22.5609C41.9959 19.698 41.9928 16.8355 41.9928 13.9729V13.6598C41.9681 13.6545 41.9433 13.6493 41.9186 13.6441Z" fill="#3F3124"/>
<path d="M89.8747 10.8891C89.4134 9.11609 88.1996 7.93745 86.6312 7.08674C85.0851 6.24801 83.4075 5.89518 81.6572 5.90962C78.0492 5.93913 74.4412 5.86045 70.8335 5.90471C70.7806 5.90533 70.728 5.91332 70.6494 5.92007V22.8987H77.521V19.0102L77.4876 14.5323C77.4845 14.5342 77.4814 14.5354 77.4783 14.5372V10.9349C78.1791 10.2953 79.0155 9.77687 79.4291 9.1459C79.8889 8.44486 80.021 7.73338 80.2116 7.722C80.5792 7.70048 80.6859 9.14006 80.6859 9.14006C80.6859 9.14006 81.1485 8.58285 81.4963 8.47682C81.7287 8.40583 81.9508 8.52599 81.7119 8.89911C81.6104 9.04436 81.526 9.20068 81.4604 9.36503C81.409 9.55191 81.3848 9.74514 81.3886 9.93883C82.4533 10.2834 82.573 10.7063 82.573 10.7063C82.5955 10.8715 82.6742 11.0241 82.7962 11.1386C82.9181 11.2532 83.0759 11.3229 83.2432 11.336C83.7099 11.4156 84.1671 11.5431 84.6074 11.7165C85.018 11.7982 84.8057 12.3717 84.6572 12.3465C84.6785 13.9404 83.2788 14.0596 82.4756 13.9124C82.4756 13.9124 78.2045 13.0439 78.5628 18.0581C80.4093 18.1368 82.2584 18.2695 84.0885 17.878C85.884 17.4938 87.4985 16.7627 88.7271 15.3609C89.8599 14.0691 90.3131 12.5736 89.8747 10.8891Z" fill="#3F3124"/>
<path d="M69.0351 22.8969V5.93001C68.9522 5.92632 65.0141 5.9254 62.0509 5.92018C61.982 5.91019 61.9119 5.92581 61.854 5.96404C61.796 6.00227 61.7543 6.06042 61.7369 6.12732C60.4429 8.10935 55.4349 16.3549 55.3655 16.4072V5.9337H49.665V22.8972C49.7337 22.9009 49.8027 22.9083 49.872 22.9083C52.8136 22.9089 53.8018 22.8926 56.7433 22.8988C56.8089 22.9062 56.8749 22.8897 56.9292 22.8524C56.9834 22.8151 57.0222 22.7595 57.0382 22.6959C58.304 20.7056 63.0466 13.0394 63.3154 12.52V22.8969L69.0351 22.8969Z" fill="#3F3124"/>
<path d="M104.016 5.90067C103.947 5.89064 103.877 5.90625 103.819 5.94448C103.761 5.98272 103.719 6.04089 103.702 6.10782C102.407 8.09016 97.3994 16.3357 97.3304 16.3877V5.91419H91.6299V22.8777C91.6986 22.8814 91.7676 22.8888 91.8366 22.8888C93.6447 22.8891 94.715 22.8833 95.9538 22.8802L99.2688 22.8796C100.066 22.7477 101.032 22.3239 101.159 21.0521C101.021 19.6378 101.843 18.8842 102.062 18.6958C102.261 18.5288 102.45 18.351 102.629 18.1632C102.796 18.0697 103.1 17.5147 103.109 17.2645C103.118 17.014 102.777 16.7448 102.777 16.7448C102.608 16.5945 102.426 16.4586 102.233 16.3385C101.835 16.0683 101.88 15.4444 101.89 15.0919C101.899 14.7391 102.039 14.7062 102.334 14.6942C102.63 14.6825 102.827 14.5479 103.09 14.3832C103.353 14.2185 103.506 13.9923 103.958 14.0015C104.227 14.0073 104.49 13.9199 104.701 13.7544L104.731 13.7449C104.731 13.7449 104.96 12.4012 105.119 12.3975C105.277 12.3938 105.732 13.8862 106.038 14.8205C106.249 15.4635 106.428 15.9617 106.338 17.0472C106.339 17.0466 106.343 17.0444 106.343 17.0444C106.343 17.0444 106.236 18.409 106.478 19.1316C106.636 19.5114 106.853 19.8637 107.123 20.1753C107.914 20.9051 108.536 21.7975 108.945 22.7904C108.957 22.8193 108.967 22.8485 108.979 22.8777L109.779 22.8774H111V5.91081C110.917 5.90713 106.979 5.9062 104.016 5.90067Z" fill="#3F3124"/>
<path d="M99.0488 22.9102L98.1855 22.9157C98.4727 22.9439 98.762 22.9421 99.0488 22.9102Z" fill="#3F3124"/>
</g>
<defs>
<clipPath id="clip0_196_5590">
<rect width="111" height="22" fill="white" transform="translate(0 0.935059)"/>
</clipPath>
</defs>
</svg>
