<svg width="152" height="28" viewBox="0 0 152 28" fill="none" xmlns="http://www.w3.org/2000/svg">
<path fill-rule="evenodd" clip-rule="evenodd" d="M32.7287 23.7009C33.0222 24.4251 33.3163 25.1489 33.6109 25.8723C33.8237 26.3942 34.036 26.9163 34.2477 27.4385C34.2822 27.524 34.3146 27.6103 34.3521 27.7126L31.9799 27.7121C29.4452 27.7109 26.8234 27.71 24.2449 27.7209C23.9865 27.7218 23.9208 27.6773 23.8442 27.4401C23.6178 26.7415 23.3762 26.0357 23.1421 25.3535L23.1242 25.3011L23.1241 25.3008L23.1239 25.3002L23.1239 25.3002L23.1239 25.3001C22.917 24.6952 22.7035 24.0709 22.5019 23.4549C22.361 23.0241 22.1181 22.8477 21.6648 22.8477H21.6543C18.8729 22.8644 15.9569 22.8644 12.9878 22.8485H12.979C12.5467 22.8485 12.3127 23.0182 12.1721 23.4336C11.7424 24.7038 11.2651 26.0508 10.712 27.5516C10.6708 27.618 10.6097 27.6697 10.5373 27.6996C7.51327 27.7135 4.4393 27.7118 1.46114 27.7101L1.26184 27.71L0.5 27.7096C0.51259 27.6785 0.524938 27.6475 0.537238 27.6166L0.56944 27.5361L0.59143 27.481L0.59145 27.481C0.703701 27.1997 0.813419 26.9248 0.927212 26.6518C1.74391 24.6918 2.56075 22.732 3.37771 20.7723C4.45931 18.1795 5.53991 15.5864 6.61953 12.993C8.22149 9.14484 9.87775 5.16594 11.5184 1.18492C11.6148 0.950647 11.6897 0.898682 11.936 0.898682H11.9427C15.5267 0.912085 19.3149 0.912085 23.2011 0.899514C23.4641 0.893655 23.5416 0.947718 23.6333 1.17571C26.3806 7.99903 29.1838 14.933 31.8949 21.6381L32.7287 23.7009ZM17.215 9.30494L14.5389 16.8252H20.2063L17.6258 9.341L17.215 9.30494ZM56.4725 17.4811C56.8229 16.6991 57.1733 15.9171 57.524 15.135L57.625 15.1564V15.5835C57.625 16.4141 57.6252 17.2448 57.6254 18.0754C57.6261 21.1483 57.6268 24.2212 57.6178 27.2943C57.617 27.6279 57.7071 27.7209 58.0433 27.7189C59.9212 27.7083 61.7992 27.7095 63.6771 27.7106C64.2644 27.711 64.8517 27.7113 65.4391 27.7113H65.8351V4.65928C65.7952 4.64214 65.7534 4.6299 65.7105 4.62281L63.9831 4.62141C61.2544 4.61904 58.9524 4.61704 56.0057 4.62574C55.9404 4.63669 55.8785 4.66245 55.8248 4.70104C55.7711 4.73963 55.727 4.79001 55.696 4.84829C54.6837 7.13742 52.2406 11.4342 51.1327 13.3827L51.1325 13.383C50.8079 13.9539 50.5979 14.3231 50.5723 14.3811C50.5592 14.3554 50.4651 14.196 50.3101 13.9333L50.3101 13.9332C49.4208 12.4261 46.5256 7.51931 45.3947 4.95013C45.362 4.83756 45.2897 4.74045 45.191 4.67652C45.0923 4.61259 44.9739 4.58609 44.8572 4.60185C41.4812 4.6115 39.0719 4.6182 35.6958 4.6182H35.2964V27.7113H35.6929C36.2921 27.7113 36.8914 27.7108 37.4906 27.7103H37.4907H37.4907H37.4907H37.4908H37.4914C39.3451 27.7086 41.1989 27.707 43.0524 27.721C43.4283 27.7235 43.5158 27.6187 43.5146 27.2545C43.504 24.188 43.5048 21.1218 43.5057 18.0557V18.0526C43.5059 17.2163 43.5061 16.38 43.5061 15.5437V15.148L43.6025 15.1417C43.6294 15.2026 43.6566 15.2632 43.6837 15.3239L43.6837 15.324L43.6838 15.3241L43.6838 15.3242L43.6838 15.3243C43.7448 15.4608 43.8058 15.5973 43.8643 15.7348C45.4447 19.4481 47.0215 23.1629 48.5949 26.879C48.6178 26.9651 48.6709 27.0401 48.7447 27.0905C48.8185 27.1409 48.9079 27.1632 48.9968 27.1535C49.9561 27.1401 50.9157 27.1418 51.875 27.1522C51.9638 27.1615 52.053 27.1393 52.127 27.0895C52.2009 27.0396 52.2548 26.9654 52.2791 26.8798C53.6748 23.7459 55.0726 20.6131 56.4725 17.4811ZM122.762 11.378C122.134 8.96028 120.483 7.35305 118.35 6.19298C116.246 5.04926 113.964 4.56814 111.583 4.58783C109.286 4.60667 106.988 4.59318 104.691 4.57969C102.08 4.56436 99.4696 4.54903 96.8591 4.58113C96.812 4.58168 96.7651 4.58653 96.7085 4.5924C96.6784 4.5955 96.6457 4.59889 96.6086 4.60208V27.7547H105.957V22.4523L105.911 16.346C105.907 16.3486 105.903 16.3502 105.898 16.3527V11.4405C106.22 11.1463 106.563 10.8709 106.897 10.6021C107.554 10.0739 108.179 9.57112 108.552 9.00093C108.853 8.5409 109.051 8.07757 109.204 7.71892C109.369 7.33228 109.482 7.0673 109.617 7.05925C110.117 7.02991 110.262 8.99297 110.262 8.99297C110.262 8.99297 110.891 8.23314 111.364 8.08855C111.68 7.99174 111.983 8.15561 111.658 8.6644C111.52 8.86247 111.405 9.07564 111.315 9.29975C111.246 9.55458 111.213 9.81808 111.218 10.0822C112.666 10.552 112.829 11.1287 112.829 11.1287C112.86 11.354 112.967 11.5621 113.133 11.7183C113.298 11.8745 113.513 11.9695 113.741 11.9874C114.376 12.0959 114.998 12.2698 115.596 12.5063C116.155 12.6177 115.866 13.3998 115.664 13.3654C115.693 15.5388 113.789 15.7015 112.696 15.5007C112.696 15.5007 106.886 14.3163 107.374 21.1539C107.609 21.164 107.843 21.1746 108.078 21.1853C110.356 21.2888 112.634 21.3923 114.891 20.9083C117.333 20.3845 119.529 19.3874 121.201 17.4759C122.742 15.7145 123.358 13.6751 122.762 11.378ZM94.4128 4.61556V27.7523L86.632 27.7523V13.6019C86.2662 14.3101 79.8146 24.7641 78.0927 27.4782C78.0708 27.5649 78.0181 27.6407 77.9443 27.6916C77.8706 27.7425 77.7807 27.7649 77.6915 27.7548C75.4797 27.7501 74.0797 27.7549 72.594 27.7599C71.3919 27.7639 70.1337 27.7681 68.3441 27.7678C68.2811 27.7678 68.2182 27.7633 68.1556 27.7588C68.1245 27.7566 68.0935 27.7543 68.0625 27.7527V4.62059H75.8172V18.9026C75.8559 18.8734 77.0227 16.9681 78.5077 14.5432L78.5077 14.5431C80.6466 11.0504 83.4456 6.47983 84.4845 4.88462C84.5082 4.79339 84.565 4.7141 84.6438 4.66197C84.7227 4.60984 84.8181 4.58854 84.9117 4.60216C86.7113 4.60534 88.7753 4.60735 90.5189 4.60905C92.6809 4.61115 94.3504 4.61278 94.4128 4.61556ZM141.999 4.57558C141.905 4.5619 141.81 4.58318 141.731 4.63532C141.652 4.68746 141.595 4.76679 141.572 4.85805C140.531 6.45513 137.728 11.0334 135.588 14.5274C134.106 16.9473 132.943 18.847 132.904 18.876V4.59402H125.15V27.7261C125.181 27.7278 125.212 27.73 125.243 27.7322C125.305 27.7367 125.368 27.7412 125.431 27.7412C127.203 27.7415 128.454 27.7374 129.645 27.7336H129.646C130.108 27.7321 130.561 27.7306 131.032 27.7295L135.541 27.7286C136.626 27.5488 137.939 26.9709 138.112 25.2367C137.925 23.308 139.044 22.2804 139.341 22.0234C139.611 21.7957 139.869 21.5533 140.112 21.2971C140.34 21.1697 140.753 20.4128 140.766 20.0717C140.778 19.7301 140.314 19.363 140.314 19.363C140.083 19.1581 139.836 18.9727 139.574 18.809C139.063 18.4616 139.088 17.6855 139.104 17.195L139.106 17.1091C139.119 16.628 139.309 16.5831 139.711 16.5668C140.091 16.5518 140.351 16.3874 140.68 16.18L140.739 16.1427C140.824 16.0891 140.901 16.0309 140.977 15.9733C141.22 15.7893 141.452 15.6126 141.921 15.6221C142.287 15.6301 142.644 15.511 142.931 15.2852L142.972 15.2722C142.972 15.2722 143.283 13.4399 143.499 13.4349C143.684 13.4306 144.165 14.9226 144.56 16.1514L144.56 16.1516C144.627 16.3576 144.691 16.5562 144.75 16.739L144.779 16.8279C145.053 17.663 145.277 18.3456 145.158 19.7754C145.159 19.7746 145.165 19.7716 145.165 19.7716C145.165 19.7716 145.019 21.6324 145.348 22.6177C145.563 23.1356 145.859 23.6161 146.226 24.041C147.302 25.0361 148.148 26.2531 148.704 27.6071C148.71 27.6207 148.716 27.6343 148.721 27.648C148.725 27.6579 148.729 27.6678 148.732 27.6777C148.738 27.6938 148.745 27.71 148.751 27.7261L149.839 27.7257H151.5V4.58941C151.439 4.58668 149.832 4.58506 147.731 4.58295L147.731 4.58295L147.73 4.58294C145.961 4.58116 143.841 4.57903 141.999 4.57558ZM135.242 27.7705L134.068 27.7781C134.459 27.8166 134.852 27.814 135.242 27.7705Z" fill="white"/>
</svg>
