<svg width="192" height="38" viewBox="0 0 192 38" fill="none" xmlns="http://www.w3.org/2000/svg">
<g clip-path="url(#clip0_196_832)">
<path d="M44.6279 4.71087V3.1183H44.872C44.9522 3.06644 45.0231 3.00167 45.0818 2.92667C45.1442 2.85687 45.1979 2.77987 45.2418 2.69733C45.2963 2.59202 45.3304 2.4775 45.3424 2.35971L45.5945 0.0419922H48.1666V3.1183H48.6713V4.71087H47.9397V3.82701H45.3595V4.71087H44.6279ZM47.4104 3.1183V0.750686H46.2586L46.0826 2.35972C46.0746 2.4768 46.049 2.59204 46.0066 2.70159C45.9755 2.78056 45.936 2.85601 45.8888 2.92667C45.8489 2.99812 45.7978 3.06281 45.7374 3.1183L47.4104 3.1183Z" fill="#F4FAFF"/>
<path d="M49.9736 3.82699V3.19316H50.0748C50.1557 3.19903 50.2369 3.18839 50.3135 3.16191C50.3901 3.13543 50.4604 3.09367 50.5201 3.03921C50.6332 2.90455 50.6956 2.7351 50.6967 2.55984L50.9065 0.0419922H53.5797V3.827H52.823V0.725735H51.5621L51.4363 2.60125C51.4323 2.9467 51.3039 3.27935 51.0745 3.53927C50.9668 3.64884 50.8372 3.73476 50.6939 3.79146C50.5506 3.84816 50.397 3.87437 50.2428 3.8684C50.1516 3.86732 50.0609 3.85338 49.9736 3.82699Z" fill="#F4FAFF"/>
<path d="M55.5137 3.82717L56.3962 2.42677C56.2627 2.36646 56.1392 2.28626 56.0301 2.18895C55.926 2.08679 55.8394 1.96844 55.7738 1.83858C55.69 1.66601 55.6498 1.4758 55.6566 1.28436C55.6547 1.11572 55.6875 0.948475 55.7529 0.792795C55.8159 0.644744 55.909 0.511187 56.0264 0.4005C56.1479 0.286805 56.2906 0.197723 56.4465 0.138248C56.6208 0.0719477 56.8063 0.0393327 56.993 0.0421616H58.6654V3.82717H57.9092V2.52657H57.1776L56.3539 3.82717L55.5137 3.82717ZM57.9258 1.85132V0.717417H57.0261C56.9426 0.716267 56.8598 0.731981 56.7826 0.763604C56.7111 0.793126 56.6456 0.835406 56.5894 0.888348C56.534 0.940358 56.4896 1.0028 56.4588 1.07203C56.4288 1.13888 56.4131 1.21119 56.4128 1.28437C56.4122 1.35902 56.4279 1.43292 56.4588 1.50097C56.4903 1.56859 56.5346 1.62952 56.5894 1.68039C56.6456 1.7335 56.711 1.77596 56.7826 1.80567C56.8599 1.83686 56.9427 1.85238 57.0261 1.85131L57.9258 1.85132Z" fill="#F4FAFF"/>
<path d="M64.3139 2.66826C64.3291 2.80087 64.3918 2.92368 64.4905 3.01439C64.5535 3.07181 64.6259 3.11829 64.7045 3.15188C64.8071 3.19371 64.9175 3.21362 65.0283 3.21028C65.1986 3.22084 65.3667 3.16718 65.4988 3.06004C65.5511 3.01749 65.5933 2.96404 65.6224 2.90349C65.6516 2.84294 65.6669 2.77677 65.6674 2.70967C65.6668 2.64546 65.6518 2.58217 65.6234 2.52448C65.5949 2.46679 65.5538 2.41615 65.503 2.3763C65.3675 2.27334 65.1987 2.22295 65.0283 2.23456H64.6751V1.58426H65.0283C65.1742 1.59154 65.3177 1.54567 65.4319 1.45527C65.4799 1.4165 65.5184 1.36749 65.5446 1.31187C65.5709 1.25626 65.5841 1.19549 65.5833 1.1341C65.5852 1.07016 65.5726 1.00661 65.5464 0.948161C65.5202 0.889716 65.481 0.837874 65.4319 0.79648C65.3177 0.706074 65.1742 0.660192 65.0283 0.667481C64.9238 0.664175 64.8197 0.681125 64.7217 0.717381C64.6473 0.746336 64.5789 0.788627 64.5199 0.84214C64.4698 0.88786 64.4297 0.943333 64.4022 1.0051C64.3797 1.05406 64.3642 1.10587 64.3561 1.15905H63.6331C63.6472 0.996477 63.6884 0.837354 63.7551 0.688187C63.8183 0.547848 63.9132 0.423793 64.0324 0.325604C64.1609 0.220903 64.3076 0.140313 64.4653 0.0877823C64.6495 0.0268532 64.8428 -0.00275781 65.0369 0.00020182C65.2148 -0.00191596 65.3914 0.0292356 65.5576 0.0920249C65.8508 0.202394 66.0901 0.420162 66.2261 0.700403C66.2897 0.830476 66.3228 0.973104 66.323 1.11764C66.3264 1.23953 66.3019 1.36061 66.2513 1.47172C66.2111 1.55786 66.1588 1.63793 66.0961 1.70955C66.0283 1.78313 65.9488 1.84502 65.8606 1.89269C65.9623 1.94918 66.0556 2.0194 66.1378 2.10132C66.2122 2.17785 66.2746 2.26499 66.323 2.35985C66.3807 2.4735 66.4096 2.59943 66.407 2.72668C66.4075 2.87914 66.3745 3.02988 66.3101 3.16835C66.246 3.307 66.153 3.43058 66.0372 3.53092C65.911 3.63886 65.7656 3.72241 65.6085 3.77724C65.4248 3.84072 65.2314 3.87162 65.0369 3.86855C64.8372 3.8716 64.6383 3.84219 64.4482 3.78149C64.2842 3.72863 64.1328 3.64339 64.0029 3.53092C63.8819 3.42581 63.7846 3.29668 63.7171 3.15189C63.6476 2.99897 63.6049 2.83542 63.5908 2.66827L64.3139 2.66826Z" fill="#F4FAFF"/>
<path d="M67.8857 4.71087V3.1183H68.1298C68.21 3.06631 68.2811 3.00157 68.3401 2.92667C68.4022 2.85671 68.4557 2.77973 68.4996 2.69733C68.5541 2.59201 68.5882 2.4775 68.6002 2.35971L68.8528 0.0419922H71.4244V3.1183H71.9291V4.71087H71.1975V3.82701H68.6173V4.71087H67.8857ZM70.6682 3.1183V0.750686H69.5165L69.3404 2.35972C69.3324 2.4768 69.3068 2.59204 69.2644 2.70159C69.2333 2.78056 69.1938 2.85601 69.1466 2.92667C69.1067 2.99812 69.0556 3.06281 68.9952 3.1183L70.6682 3.1183Z" fill="#F4FAFF"/>
<path d="M74.6599 3.7229C74.4396 3.6285 74.2408 3.49091 74.0755 3.3184C73.9063 3.14051 73.7723 2.93271 73.6805 2.7058C73.5807 2.46079 73.5307 2.19867 73.5333 1.93446C73.5305 1.67161 73.5806 1.41083 73.6805 1.16737C73.7739 0.941249 73.9077 0.733717 74.0755 0.554763C74.24 0.380308 74.4389 0.24119 74.6599 0.14601C74.8823 0.0490429 75.1228 -0.000687753 75.3658 1.23929e-05C75.6076 -0.000902502 75.8469 0.0488485 76.068 0.14601C76.2879 0.242672 76.4864 0.381597 76.6519 0.554763C76.8214 0.732342 76.9554 0.940222 77.0468 1.16737C77.1441 1.41148 77.1926 1.672 77.1897 1.93446C77.1924 2.19828 77.1439 2.46015 77.0468 2.7058C76.957 2.93373 76.8228 3.14189 76.6519 3.3184C76.4856 3.48963 76.2873 3.62703 76.068 3.72291C75.8469 3.82007 75.6076 3.86981 75.3658 3.86889C75.1228 3.8696 74.8823 3.81987 74.6599 3.7229ZM75.7693 3.07261C75.8991 3.01365 76.015 2.9285 76.1097 2.82259C76.2113 2.70844 76.2911 2.57695 76.3452 2.43452C76.463 2.11137 76.463 1.75753 76.3452 1.43438C76.2909 1.29202 76.2111 1.16055 76.1097 1.04633C76.015 0.940421 75.8991 0.855261 75.7693 0.796297C75.6428 0.738424 75.5051 0.708541 75.3658 0.708717C75.2238 0.707911 75.0834 0.737797 74.9542 0.796297C74.8245 0.855262 74.7085 0.940421 74.6138 1.04633C74.5122 1.16042 74.4324 1.29192 74.3783 1.43438C74.2606 1.75754 74.2606 2.11137 74.3783 2.43452C74.4323 2.57705 74.5121 2.70858 74.6138 2.82259C74.7085 2.9285 74.8245 3.01365 74.9542 3.07261C75.0834 3.13112 75.2238 3.16101 75.3658 3.1602C75.5051 3.16038 75.6428 3.13049 75.7693 3.07261Z" fill="#F4FAFF"/>
<path d="M79.1572 5.16126V0.0422029H79.7117L79.8803 0.442469C79.9703 0.360089 80.0688 0.287318 80.1741 0.225355C80.2851 0.162994 80.402 0.111436 80.523 0.0714004C80.679 0.021212 80.8424 -0.00282949 81.0063 0.000264818C81.2426 -0.000634647 81.4763 0.0491702 81.6914 0.146263C81.9047 0.242235 82.0973 0.378142 82.2587 0.546528C82.4253 0.722613 82.5553 0.929503 82.6413 1.1554C82.8261 1.65894 82.8261 2.21099 82.6413 2.71453C82.5547 2.94125 82.4248 3.14925 82.2587 3.32714C82.099 3.49749 81.906 3.6337 81.6914 3.7274C81.4756 3.8219 81.2422 3.87019 81.0063 3.86914C80.8466 3.8721 80.6875 3.84805 80.5359 3.79802C80.4173 3.75832 80.303 3.70673 80.195 3.64407C80.0925 3.5803 79.998 3.50475 79.9135 3.41898V5.16125L79.1572 5.16126ZM81.351 3.07286C81.484 3.01532 81.603 2.93005 81.6999 2.82284C81.8017 2.70821 81.8827 2.5769 81.9392 2.43477C82.0028 2.27573 82.0343 2.10581 82.0317 1.93471C82.034 1.76402 82.004 1.59441 81.9434 1.43463C81.8889 1.29157 81.8077 1.15993 81.7042 1.04658C81.6048 0.939354 81.4839 0.853926 81.3492 0.795784C81.2146 0.737642 81.0692 0.708069 80.9223 0.708966C80.7776 0.708759 80.6345 0.738593 80.5022 0.796547C80.369 0.85382 80.2499 0.939136 80.1532 1.04658C80.0518 1.16079 79.972 1.29226 79.9177 1.43463C79.8 1.75778 79.8 2.11162 79.9177 2.43477C79.9721 2.57803 80.0535 2.70973 80.1575 2.82284C80.2553 2.929 80.3741 3.0141 80.5064 3.07286C80.6372 3.13107 80.779 3.16093 80.9223 3.16045C81.0698 3.16127 81.2158 3.13143 81.351 3.07286Z" fill="#F4FAFF"/>
<path d="M85.6472 3.7229C85.4269 3.6285 85.2281 3.49091 85.0628 3.3184C84.8936 3.14051 84.7596 2.93271 84.6678 2.7058C84.568 2.46079 84.518 2.19867 84.5206 1.93446C84.5178 1.67161 84.5678 1.41083 84.6678 1.16737C84.7612 0.941249 84.895 0.733717 85.0628 0.554763C85.2273 0.380308 85.4262 0.241191 85.6472 0.14601C85.8696 0.0490429 86.1101 -0.000687753 86.3531 1.23929e-05C86.5949 -0.000902502 86.8342 0.0488485 87.0553 0.14601C87.2752 0.242672 87.4737 0.381597 87.6392 0.554763C87.8087 0.732342 87.9427 0.940222 88.0341 1.16737C88.1314 1.41148 88.1799 1.672 88.177 1.93446C88.1797 2.19828 88.1312 2.46015 88.0341 2.7058C87.9443 2.93373 87.8101 3.14189 87.6392 3.3184C87.4729 3.48963 87.2746 3.62703 87.0553 3.72291C86.8342 3.82007 86.5949 3.86981 86.3531 3.86889C86.1101 3.8696 85.8696 3.81987 85.6472 3.7229ZM86.7566 3.07261C86.8864 3.01365 87.0023 2.9285 87.097 2.82259C87.1986 2.70844 87.2784 2.57695 87.3325 2.43452C87.4503 2.11137 87.4503 1.75753 87.3325 1.43438C87.2782 1.29202 87.1985 1.16055 87.097 1.04633C87.0023 0.940421 86.8864 0.855262 86.7566 0.796297C86.6301 0.738424 86.4924 0.708541 86.3531 0.708717C86.2111 0.707913 86.0707 0.737799 85.9415 0.796297C85.8118 0.855262 85.6959 0.940421 85.6011 1.04633C85.4995 1.16042 85.4197 1.29192 85.3657 1.43438C85.2479 1.75754 85.2479 2.11137 85.3657 2.43452C85.4196 2.57705 85.4994 2.70858 85.6011 2.82259C85.6959 2.9285 85.8118 3.01365 85.9415 3.07261C86.0707 3.13112 86.2111 3.16101 86.3531 3.1602C86.4924 3.16038 86.6301 3.13049 86.7566 3.07261Z" fill="#F4FAFF"/>
<path d="M90.1426 3.82707V0.0420686H91.891C92.0487 0.0403647 92.2054 0.0671704 92.3534 0.121174C92.4848 0.168311 92.6049 0.241941 92.7061 0.33742C92.8074 0.432898 92.8875 0.548154 92.9416 0.675912C92.9979 0.804716 93.0265 0.943751 93.0256 1.08414C93.029 1.20572 93.0062 1.32661 92.9587 1.43875C92.8787 1.61175 92.7465 1.75586 92.5804 1.85123C92.7945 1.94394 92.9666 2.1118 93.0636 2.32262C93.1264 2.45398 93.1567 2.5983 93.152 2.7436C93.1528 2.88948 93.1242 3.03405 93.0679 3.16882C93.0141 3.2988 92.934 3.41643 92.8324 3.51441C92.7297 3.61331 92.6085 3.69122 92.4755 3.74372C92.3297 3.80092 92.1741 3.82924 92.0174 3.82708L90.1426 3.82707ZM90.8993 1.60119H91.7733C91.9057 1.60783 92.0356 1.56287 92.1351 1.47592C92.1789 1.43569 92.2135 1.38666 92.2367 1.3321C92.2599 1.27754 92.271 1.2187 92.2694 1.15952C92.2719 1.097 92.2612 1.03465 92.2381 0.97644C92.215 0.918228 92.1799 0.865418 92.1351 0.821366C92.0864 0.777197 92.0293 0.743053 91.9672 0.72091C91.9051 0.698767 91.8392 0.689067 91.7733 0.692369H90.8993V1.60119ZM90.8993 3.18526H91.8996C91.9659 3.18538 92.0315 3.17258 92.0928 3.14758C92.1534 3.12329 92.209 3.088 92.2566 3.04352C92.3045 2.99866 92.3407 2.94291 92.362 2.88108C92.384 2.81808 92.3954 2.75189 92.3957 2.6852C92.3954 2.62386 92.384 2.56309 92.362 2.50576C92.3397 2.4479 92.3035 2.39632 92.2566 2.35553C92.208 2.31344 92.1526 2.27971 92.0928 2.25573C92.0315 2.23072 91.9659 2.21791 91.8996 2.21803H90.8993V3.18526Z" fill="#F4FAFF"/>
<path d="M95.1182 3.827V0.0419922H95.8749V1.35107H96.766C96.9509 1.3481 97.1347 1.37906 97.3082 1.44239C97.4604 1.49897 97.5993 1.58585 97.7164 1.69769C97.8334 1.80952 97.9262 1.94395 97.9889 2.09268C98.0878 2.32317 98.1149 2.57769 98.067 2.8236C98.019 3.06951 97.8981 3.29561 97.7197 3.47291C97.6027 3.58809 97.4624 3.67746 97.3082 3.73516C97.1348 3.79892 96.9509 3.83006 96.766 3.82699L95.1182 3.827ZM95.8749 3.15175H96.7237C96.8056 3.15221 96.8868 3.13801 96.9635 3.10982C97.0362 3.08385 97.1032 3.0444 97.161 2.99356C97.2162 2.94401 97.2594 2.88266 97.2873 2.81413C97.3158 2.74101 97.3299 2.66318 97.329 2.58479C97.329 2.51278 97.3133 2.44162 97.283 2.37616C97.2514 2.30879 97.2071 2.24805 97.1524 2.19728C97.0962 2.14428 97.0307 2.10183 96.9592 2.07198C96.8819 2.0408 96.7991 2.02528 96.7157 2.02634H95.8749L95.8749 3.15175Z" fill="#F4FAFF"/>
<path d="M99.7002 3.82717L100.583 2.42677C100.449 2.36646 100.326 2.28626 100.217 2.18895C100.113 2.08679 100.026 1.96844 99.9603 1.83858C99.8765 1.66601 99.8363 1.4758 99.8431 1.28436C99.8413 1.11572 99.874 0.948475 99.9394 0.792795C100.002 0.644744 100.095 0.511187 100.213 0.4005C100.334 0.286809 100.477 0.197728 100.633 0.138248C100.807 0.0719476 100.993 0.0393326 101.179 0.0421617H102.852V3.82717H102.096V2.52657H101.364L100.54 3.82717L99.7002 3.82717ZM102.112 1.85132V0.717417H101.213C101.129 0.716218 101.046 0.731933 100.969 0.763604C100.898 0.793126 100.832 0.835406 100.776 0.888348C100.721 0.940349 100.676 1.00279 100.645 1.07203C100.615 1.13888 100.6 1.21119 100.599 1.28437C100.599 1.35902 100.614 1.43292 100.645 1.50097C100.677 1.5686 100.721 1.62953 100.776 1.68039C100.832 1.7335 100.898 1.77596 100.969 1.80567C101.047 1.8369 101.13 1.85242 101.213 1.85131L102.112 1.85132Z" fill="#F4FAFF"/>
<path d="M108.08 3.827V0.0419922H108.837V2.6932L110.661 0.0419922H111.4V3.827H110.643V1.17599L108.82 3.827H108.08Z" fill="#F4FAFF"/>
<path d="M116.62 5.16127V0.0422096H117.175L117.343 0.442475C117.433 0.360104 117.532 0.287334 117.637 0.225361C117.748 0.163004 117.865 0.111446 117.986 0.0714071C118.142 0.0211786 118.305 -0.00286391 118.469 0.000271478C118.706 -0.000627736 118.939 0.049177 119.154 0.14627C119.368 0.242249 119.56 0.378155 119.722 0.546535C119.888 0.722617 120.018 0.929507 120.104 1.15541C120.289 1.65895 120.289 2.211 120.104 2.71454C120.018 2.94126 119.888 3.14926 119.722 3.32714C119.562 3.49749 119.369 3.6337 119.154 3.72741C118.939 3.8219 118.705 3.8702 118.469 3.86915C118.309 3.87211 118.15 3.84806 117.999 3.79803C117.88 3.75833 117.766 3.70674 117.658 3.64407C117.555 3.58031 117.461 3.50476 117.376 3.41899V5.16125L116.62 5.16127ZM118.814 3.07286C118.947 3.01532 119.066 2.93005 119.163 2.82284C119.38 2.57776 119.499 2.2613 119.495 1.93472C119.497 1.76402 119.467 1.59442 119.406 1.43464C119.352 1.29158 119.271 1.15995 119.167 1.04659C119.068 0.93936 118.947 0.853933 118.812 0.795791C118.677 0.737649 118.532 0.708076 118.385 0.708973C118.241 0.708766 118.097 0.7386 117.965 0.796554C117.832 0.853832 117.713 0.939146 117.616 1.04659C117.515 1.16081 117.435 1.29227 117.381 1.43464C117.263 1.75779 117.263 2.11162 117.381 2.43478C117.435 2.57804 117.516 2.70973 117.62 2.82284C117.718 2.92913 117.837 3.01424 117.969 3.07286C118.1 3.13113 118.242 3.161 118.385 3.16046C118.533 3.16127 118.679 3.13144 118.814 3.07286Z" fill="#F4FAFF"/>
<path d="M124.613 3.82715L124.445 3.42688C124.302 3.56846 124.13 3.67922 123.941 3.7523C123.746 3.82977 123.538 3.86942 123.327 3.86909C123.147 3.87173 122.968 3.84205 122.798 3.7815C122.651 3.72885 122.515 3.64805 122.399 3.54367C122.291 3.44525 122.203 3.32629 122.142 3.19384C122.08 3.05763 122.049 2.90964 122.05 2.76012C122.048 2.58691 122.086 2.41559 122.163 2.26006C122.252 2.09648 122.384 1.9606 122.546 1.86775C122.769 1.74078 123.012 1.65347 123.265 1.60975C123.638 1.54232 124.016 1.51156 124.395 1.51791H124.42V1.38467C124.422 1.29295 124.405 1.20183 124.369 1.1171C124.334 1.03237 124.281 0.955905 124.214 0.892564C124.143 0.825414 124.06 0.773093 123.968 0.738712C123.876 0.704332 123.779 0.688594 123.681 0.692439C123.523 0.675731 123.364 0.71755 123.235 0.809856C123.106 0.902162 123.016 1.03844 122.983 1.1925H122.201C122.222 1.03043 122.274 0.873647 122.352 0.730121C122.431 0.58782 122.535 0.460708 122.659 0.354809C122.794 0.241872 122.947 0.15425 123.113 0.0962795C123.306 0.02967 123.51 -0.00284985 123.714 0.000195716C123.916 -0.00179682 124.115 0.0351715 124.303 0.109031C124.474 0.176213 124.631 0.275111 124.765 0.400453C124.894 0.522997 124.995 0.670679 125.064 0.834171C125.134 1.00618 125.17 1.1904 125.168 1.37617V3.82714L124.613 3.82715ZM124.42 2.13477H124.395C124.123 2.13117 123.85 2.14518 123.579 2.17671C123.413 2.19364 123.25 2.23571 123.096 2.30147C123 2.34097 122.919 2.40952 122.865 2.49735C122.825 2.5762 122.805 2.66344 122.807 2.75163C122.808 2.81511 122.823 2.87752 122.852 2.93447C122.88 2.99142 122.921 3.04154 122.97 3.08129C123.088 3.18161 123.24 3.23379 123.395 3.22728C123.666 3.22947 123.928 3.13466 124.134 2.96026C124.221 2.88574 124.293 2.79502 124.345 2.69323C124.395 2.59512 124.421 2.48673 124.42 2.37685V2.13477Z" fill="#F4FAFF"/>
<path d="M126.824 4.71087V3.1183H127.068C127.148 3.06644 127.219 3.00167 127.278 2.92667C127.34 2.85686 127.394 2.77987 127.438 2.69733C127.493 2.59201 127.527 2.4775 127.539 2.35971L127.791 0.0419922H130.363V3.1183H130.868V4.71087H130.136V3.82701H127.556V4.71087H126.824ZM129.607 3.1183V0.750686H128.455L128.279 2.35972C128.271 2.4768 128.245 2.59203 128.203 2.70159C128.172 2.78056 128.132 2.85601 128.085 2.92667C128.045 2.99812 127.994 3.06281 127.934 3.1183L129.607 3.1183Z" fill="#F4FAFF"/>
<path d="M133.598 3.7229C133.378 3.62849 133.179 3.49091 133.014 3.3184C132.845 3.14052 132.711 2.93271 132.619 2.7058C132.519 2.4608 132.469 2.19868 132.472 1.93446C132.469 1.6716 132.519 1.41083 132.619 1.16737C132.712 0.941247 132.846 0.733714 133.014 0.554763C133.179 0.380315 133.377 0.241199 133.598 0.14601C133.821 0.0490443 134.061 -0.000686161 134.304 1.23929e-05C134.546 -0.000902502 134.785 0.0488485 135.006 0.14601C135.226 0.24268 135.425 0.381604 135.59 0.554763C135.76 0.732343 135.894 0.940223 135.985 1.16737C136.083 1.41148 136.131 1.672 136.128 1.93446C136.131 2.19828 136.082 2.46015 135.985 2.7058C135.895 2.93373 135.761 3.14189 135.59 3.3184C135.424 3.48962 135.226 3.62702 135.006 3.72291C134.785 3.82007 134.546 3.86981 134.304 3.86889C134.061 3.8696 133.821 3.81987 133.598 3.7229ZM134.708 3.07261C134.838 3.01364 134.954 2.92849 135.048 2.82259C135.15 2.70844 135.23 2.57695 135.284 2.43452C135.401 2.11137 135.401 1.75754 135.284 1.43438C135.229 1.29202 135.15 1.16056 135.048 1.04633C134.954 0.940428 134.838 0.85527 134.708 0.796297C134.581 0.738424 134.444 0.708541 134.304 0.708717C134.162 0.707911 134.022 0.737797 133.893 0.796297C133.763 0.855261 133.647 0.940418 133.552 1.04633C133.451 1.16042 133.371 1.29192 133.317 1.43438C133.199 1.75753 133.199 2.11136 133.317 2.43452C133.371 2.57704 133.451 2.70857 133.552 2.82258C133.647 2.92849 133.763 3.01364 133.893 3.0726C134.022 3.13112 134.162 3.16101 134.304 3.1602C134.444 3.16038 134.581 3.13049 134.708 3.07261Z" fill="#F4FAFF"/>
<path d="M138.982 3.72291C138.763 3.62776 138.566 3.49024 138.402 3.31841C138.233 3.14051 138.099 2.93271 138.007 2.7058C137.907 2.4608 137.857 2.19868 137.859 1.93447C137.857 1.67161 137.907 1.41084 138.007 1.16737C138.1 0.941259 138.234 0.733728 138.402 0.554767C138.565 0.381006 138.763 0.241952 138.982 0.146014C139.206 0.0483045 139.448 -0.00144163 139.692 3.17994e-05C139.833 -0.000695768 139.973 0.0177017 140.108 0.0547097C140.238 0.0899863 140.363 0.138739 140.482 0.200156C140.599 0.261317 140.708 0.336951 140.806 0.425245C140.902 0.513186 140.991 0.609472 141.071 0.712966C141.149 0.816281 141.215 0.928128 141.268 1.04634C141.32 1.16332 141.361 1.28489 141.39 1.40946H140.633C140.601 1.31143 140.554 1.21862 140.495 1.13394C140.436 1.05052 140.364 0.977341 140.281 0.917352C140.196 0.856205 140.104 0.805738 140.007 0.767118C139.907 0.727812 139.8 0.707991 139.692 0.708732C139.55 0.707924 139.41 0.737816 139.28 0.796329C139.151 0.855279 139.035 0.940432 138.94 1.04635C138.838 1.16043 138.759 1.29194 138.705 1.43442C138.587 1.75756 138.587 2.11141 138.705 2.43455C138.759 2.57708 138.838 2.70861 138.94 2.8226C139.035 2.92852 139.151 3.01368 139.28 3.07264C139.41 3.13114 139.55 3.16103 139.692 3.16022C139.799 3.16105 139.906 3.14271 140.007 3.10608C140.106 3.06999 140.198 3.01933 140.281 2.95584C140.363 2.89363 140.435 2.81913 140.495 2.735C140.554 2.65045 140.601 2.55782 140.633 2.46001H141.39C141.361 2.5844 141.32 2.7058 141.268 2.82259C141.215 2.94185 141.149 3.05504 141.071 3.16021C140.993 3.26497 140.904 3.3614 140.806 3.44795C140.707 3.53452 140.598 3.61001 140.482 3.67302C140.363 3.73741 140.236 3.78647 140.104 3.81902C139.969 3.85215 139.831 3.86891 139.692 3.86892C139.448 3.87038 139.206 3.82062 138.982 3.72291Z" fill="#F4FAFF"/>
<path d="M144.09 3.827V0.750688H142.93V0.0419922H146.006V0.750688H144.846V3.827H144.09Z" fill="#F4FAFF"/>
<path d="M147.82 3.827V0.0419922H148.576V2.6932L150.401 0.0419922H151.141V3.827H150.384V1.17599L148.56 3.827H147.82Z" fill="#F4FAFF"/>
<path d="M156.361 3.827V0.0419922H159.665V3.827H158.908V0.750688H157.118V3.827H156.361Z" fill="#F4FAFF"/>
<path d="M161.875 3.827V0.0419922H162.631V2.6932L164.455 0.0419922H165.195V3.827H164.438V1.17599L162.614 3.827H161.875Z" fill="#F4FAFF"/>
<path d="M168.171 3.827V0.750688H167.011V0.0419922H170.087V0.750688H168.927V3.827H168.171Z" fill="#F4FAFF"/>
<path d="M172.709 3.7229C172.488 3.62849 172.29 3.49091 172.124 3.3184C171.955 3.14052 171.821 2.93271 171.729 2.7058C171.63 2.4608 171.58 2.19868 171.582 1.93446C171.579 1.6716 171.629 1.41083 171.729 1.16737C171.823 0.941247 171.957 0.733714 172.124 0.554763C172.289 0.380316 172.488 0.241199 172.709 0.14601C172.931 0.0490443 173.172 -0.000686161 173.415 1.23929e-05C173.656 -0.000902502 173.896 0.0488485 174.117 0.14601C174.337 0.24268 174.535 0.381605 174.701 0.554763C174.87 0.732343 175.004 0.940223 175.096 1.16737C175.193 1.41148 175.241 1.672 175.239 1.93446C175.241 2.19828 175.193 2.46015 175.096 2.7058C175.006 2.93373 174.872 3.14189 174.701 3.3184C174.534 3.48962 174.336 3.62702 174.117 3.72291C173.896 3.82007 173.656 3.86981 173.415 3.86889C173.172 3.8696 172.931 3.81987 172.709 3.7229ZM173.818 3.07261C173.948 3.01364 174.064 2.92849 174.159 2.82259C174.26 2.70844 174.34 2.57695 174.394 2.43452C174.512 2.11137 174.512 1.75754 174.394 1.43438C174.34 1.29202 174.26 1.16056 174.159 1.04633C174.064 0.940428 173.948 0.85527 173.818 0.796297C173.692 0.738426 173.554 0.708542 173.415 0.708717C173.273 0.707913 173.132 0.737799 173.003 0.796297C172.873 0.855239 172.757 0.940397 172.662 1.04633C172.561 1.16059 172.481 1.29205 172.427 1.43438C172.309 1.75754 172.309 2.11137 172.427 2.43452C172.481 2.57692 172.561 2.70841 172.662 2.82259C172.757 2.92852 172.873 3.01367 173.003 3.07261C173.132 3.13112 173.273 3.16101 173.415 3.1602C173.554 3.16038 173.692 3.13049 173.818 3.07261Z" fill="#F4FAFF"/>
<path d="M177.206 3.827V0.0419922H177.896L179.248 2.8349L180.593 0.0419922H181.283V3.827H180.526V1.63462L179.475 3.827H179.022L177.962 1.63462V3.827H177.206Z" fill="#F4FAFF"/>
<path d="M183.485 3.827V0.0419922H184.241V3.1183H185.948V0.0419922H186.704V3.1183H187.209V4.71093H186.486V3.827H183.485Z" fill="#F4FAFF"/>
<path d="M191.445 3.82715L191.276 3.42688C191.133 3.56846 190.961 3.67922 190.772 3.7523C190.577 3.82977 190.369 3.86942 190.158 3.86909C189.978 3.87173 189.799 3.84205 189.629 3.7815C189.482 3.72897 189.346 3.64816 189.23 3.54367C189.122 3.44525 189.035 3.32629 188.974 3.19384C188.911 3.05771 188.88 2.90966 188.881 2.76012C188.879 2.58691 188.918 2.41559 188.994 2.26006C189.083 2.09648 189.215 1.9606 189.377 1.86775C189.599 1.74086 189.843 1.65355 190.095 1.60975C190.468 1.54235 190.847 1.51159 191.226 1.51791H191.251V1.38467C191.253 1.29295 191.236 1.20183 191.201 1.1171C191.165 1.03237 191.112 0.955905 191.045 0.892564C190.974 0.825453 190.891 0.773157 190.799 0.738779C190.707 0.704401 190.61 0.688642 190.512 0.692439C190.354 0.675733 190.195 0.717554 190.066 0.809861C189.937 0.902167 189.847 1.03844 189.814 1.1925H189.032C189.053 1.03038 189.104 0.873545 189.183 0.730123C189.262 0.587821 189.366 0.460709 189.491 0.354809C189.625 0.241872 189.778 0.15425 189.944 0.0962795C190.138 0.02967 190.341 -0.00284984 190.545 0.000195715C190.747 -0.00174467 190.947 0.0352218 191.134 0.109031C191.305 0.176216 191.462 0.275116 191.596 0.400461C191.725 0.522891 191.826 0.670612 191.894 0.834179C191.965 1.00608 192.001 1.19035 191.999 1.37618V3.82715L191.445 3.82715ZM191.251 2.13477H191.226C190.954 2.13115 190.681 2.14516 190.411 2.17671C190.244 2.19364 190.081 2.23571 189.927 2.30147C189.831 2.34082 189.75 2.40941 189.696 2.49735C189.656 2.57616 189.636 2.6634 189.637 2.75163C189.639 2.81514 189.654 2.87756 189.682 2.93451C189.711 2.99147 189.751 3.04156 189.801 3.08129C189.919 3.18161 190.071 3.23379 190.226 3.22728C190.497 3.22947 190.759 3.13466 190.965 2.96026C191.052 2.8856 191.124 2.79491 191.176 2.69323C191.226 2.59512 191.252 2.48673 191.251 2.37685V2.13477Z" fill="#F4FAFF"/>
<path d="M42.1013 35.5527C41.7266 34.6364 41.3527 33.7196 40.9795 32.8023L39.9193 30.1894C36.4721 21.6962 32.9078 12.9132 29.4146 4.27034C29.2979 3.98155 29.1994 3.91307 28.8649 3.92049C23.9235 3.93641 19.1068 3.93641 14.5497 3.91943H14.5411C14.228 3.91943 14.1327 3.98526 14.0102 4.282C11.924 9.32462 9.81806 14.3646 7.78112 19.2389C6.40837 22.5238 5.03435 25.8084 3.65908 29.0927C2.62029 31.575 1.58166 34.0574 0.54321 36.5401C0.389077 36.9085 0.240825 37.2796 0.0882946 37.6602C0.058863 37.7329 0.0299698 37.8061 0 37.8799L0.968693 37.8805C4.83437 37.8826 8.8317 37.8853 12.7627 37.8672C12.8547 37.8294 12.9324 37.7639 12.9848 37.6798C13.688 35.7788 14.2949 34.0726 14.8414 32.4636C15.0201 31.9375 15.3177 31.7225 15.8673 31.7225H15.8785C19.6538 31.7427 23.3616 31.7427 26.8981 31.7215H26.9115C27.4879 31.7215 27.7967 31.945 27.976 32.4907C28.2398 33.2939 28.5198 34.1082 28.79 34.8955C29.0876 35.7597 29.3948 36.6537 29.6827 37.5386C29.7801 37.8391 29.8636 37.8953 30.1922 37.8943C33.4708 37.8805 36.8045 37.8815 40.0274 37.8831L43.0437 37.8837C42.9961 37.7541 42.9549 37.6448 42.911 37.5365C42.6418 36.875 42.3719 36.2138 42.1013 35.5527ZM17.8507 24.0931L21.2535 14.5674L21.7758 14.613L25.0571 24.0931H17.8507Z" fill="#F4FAFF"/>
<path d="M72.508 21.9521C72.0622 22.9427 71.6165 23.9333 71.1711 24.9239C69.391 28.891 67.6137 32.8593 65.839 36.8289C65.8081 36.9372 65.7396 37.0313 65.6456 37.0944C65.5516 37.1576 65.4381 37.1857 65.3252 37.1739C64.1055 37.1607 62.8853 37.1585 61.6656 37.1755C61.5525 37.1879 61.4388 37.1595 61.345 37.0957C61.2512 37.0319 61.1836 36.9369 61.1545 36.8278C59.1539 32.1207 57.1489 27.4154 55.1395 22.7118C55.0319 22.4602 54.9179 22.2112 54.8066 21.9607C54.7659 21.9633 54.7247 21.9659 54.684 21.9686V22.4697C54.684 27.4141 54.6776 32.3585 54.6947 37.3035C54.6963 37.7648 54.585 37.8975 54.1071 37.8943C50.988 37.871 47.8684 37.8821 44.7493 37.8821H44.2451V8.63082H44.753C49.0458 8.63082 52.1092 8.62233 56.402 8.61012C56.5503 8.59015 56.7009 8.62372 56.8263 8.7047C56.9518 8.78568 57.0437 8.90867 57.0854 9.05127C58.7739 12.8729 63.5564 20.7779 63.6688 20.9971C63.8127 20.6733 68.5192 12.6717 70.1836 8.92227C70.2231 8.84845 70.2791 8.78464 70.3475 8.73576C70.4158 8.68688 70.4945 8.65424 70.5775 8.64038C75.0865 8.62711 78.4085 8.63348 82.9174 8.63667C82.9719 8.64564 83.0251 8.66115 83.0758 8.68285V37.8821H82.5722C79.4376 37.8821 76.303 37.8741 73.1684 37.8917C72.7408 37.8943 72.6263 37.7765 72.6273 37.3539C72.6418 32.409 72.6364 27.4646 72.6364 22.5202V21.9792C72.5936 21.9702 72.5508 21.9612 72.508 21.9521Z" fill="#F4FAFF"/>
<path d="M155.459 17.1934C154.661 14.1309 152.561 12.0951 149.848 10.6256C147.174 9.17694 144.272 8.56751 141.245 8.59245C135.004 8.64342 128.763 8.50751 122.523 8.58397C122.431 8.58503 122.34 8.59884 122.204 8.6105V37.9372H134.09V31.2208L134.032 23.4862C134.027 23.4894 134.022 23.4915 134.016 23.4947V17.2725C135.228 16.1678 136.675 15.2722 137.391 14.1824C138.186 12.9715 138.414 11.7426 138.744 11.7229C139.38 11.6858 139.565 14.1723 139.565 14.1723C139.565 14.1723 140.365 13.2098 140.966 13.0267C141.368 12.9041 141.752 13.1116 141.339 13.7561C141.164 14.007 141.018 14.277 140.904 14.5609C140.815 14.8837 140.773 15.2174 140.78 15.552C142.622 16.1471 142.829 16.8775 142.829 16.8775C142.868 17.1629 143.004 17.4265 143.215 17.6244C143.426 17.8223 143.699 17.9426 143.988 17.9653C144.795 18.1027 145.586 18.323 146.348 18.6225C147.058 18.7637 146.691 19.7543 146.434 19.7107C146.471 22.4637 144.049 22.6697 142.66 22.4154C142.66 22.4154 135.272 20.9152 135.892 29.5762C139.086 29.7121 142.284 29.9414 145.45 29.2651C148.556 28.6015 151.348 27.3386 153.474 24.9174C155.433 22.6862 156.217 20.103 155.459 17.1934Z" fill="#F4FAFF"/>
<path d="M119.412 37.934V8.62753C119.269 8.62116 112.457 8.61958 107.331 8.61055C107.212 8.5933 107.091 8.62028 106.991 8.68632C106.891 8.75235 106.818 8.85279 106.788 8.96834C104.55 12.3918 95.8874 26.6342 95.7676 26.7244V8.6339H85.9072V37.9345C86.026 37.9409 86.1454 37.9537 86.2653 37.9537C91.3533 37.9547 93.0627 37.9266 98.1508 37.9372C98.2642 37.9501 98.3784 37.9216 98.4722 37.8572C98.566 37.7927 98.6331 37.6966 98.6608 37.5868C100.85 34.149 109.054 20.9073 109.519 20.0102V37.934L119.412 37.934Z" fill="#F4FAFF"/>
<path d="M179.919 8.5769C179.8 8.55958 179.679 8.58653 179.579 8.65258C179.478 8.71862 179.406 8.8191 179.376 8.9347C177.137 12.3587 168.475 26.6011 168.355 26.6908V8.60026H158.495V37.9009C158.614 37.9073 158.733 37.92 158.853 37.92C161.98 37.9205 163.831 37.9105 165.974 37.9051L171.708 37.9041C173.087 37.6763 174.757 36.9443 174.977 34.7476C174.74 32.3046 176.162 31.003 176.54 30.6775C176.884 30.3891 177.211 30.082 177.52 29.7576C177.81 29.5962 178.336 28.6374 178.351 28.2053C178.367 27.7727 177.777 27.3077 177.777 27.3077C177.484 27.048 177.169 26.8133 176.836 26.6059C176.147 26.1392 176.224 25.0616 176.241 24.4527C176.258 23.8433 176.499 23.7865 177.011 23.7658C177.522 23.7456 177.863 23.5131 178.317 23.2285C178.772 22.944 179.038 22.5533 179.82 22.5692C180.285 22.5793 180.739 22.4284 181.105 22.1424L181.156 22.126C181.156 22.126 181.553 19.805 181.827 19.7987C182.102 19.7923 182.889 22.3701 183.418 23.9839C183.782 25.0945 184.093 25.955 183.936 27.83C183.938 27.829 183.944 27.8252 183.944 27.8252C183.944 27.8252 183.759 30.1822 184.178 31.4303C184.451 32.0863 184.828 32.6949 185.294 33.2331C186.663 34.4936 187.738 36.0351 188.445 37.7501C188.467 37.8 188.484 37.8505 188.505 37.9009L189.888 37.9004H192V8.59442C191.857 8.58805 185.045 8.58646 179.919 8.5769Z" fill="#F4FAFF"/>
<path d="M171.328 37.957L169.835 37.9666C170.332 38.0154 170.832 38.0122 171.328 37.957Z" fill="#F4FAFF"/>
</g>
<defs>
<clipPath id="clip0_196_832">
<rect width="192" height="38" fill="white"/>
</clipPath>
</defs>
</svg>
