<svg width="100" height="18" viewBox="0 0 100 18" fill="none" xmlns="http://www.w3.org/2000/svg">
<path fill-rule="evenodd" clip-rule="evenodd" d="M21.3435 15.2543C21.5379 15.7388 21.7326 16.223 21.9277 16.7069C22.0687 17.0561 22.2093 17.4053 22.3495 17.7547C22.3723 17.8119 22.3938 17.8696 22.4186 17.938L20.8476 17.9378C19.169 17.9369 17.4327 17.9364 15.7251 17.9436C15.554 17.9442 15.5105 17.9145 15.4597 17.7558C15.3098 17.2884 15.1498 16.8163 14.9948 16.3598L14.9828 16.3245L14.9828 16.3244L14.9827 16.324L14.9826 16.3239L14.9826 16.3237C14.8456 15.9191 14.7043 15.5017 14.5708 15.0898C14.4775 14.8015 14.3166 14.6835 14.0164 14.6835H14.0094C12.1675 14.6947 10.2363 14.6947 8.27007 14.6841H8.26422C7.97796 14.6841 7.82298 14.7976 7.72987 15.0755C7.44527 15.9253 7.12918 16.8264 6.76291 17.8304C6.73564 17.8748 6.69517 17.9094 6.64723 17.9293C4.64597 17.9387 2.6117 17.9375 0.640722 17.9364H0.640218H0.639719H0.639224H0.637663L0.504528 17.9364L0 17.9361L0.0246923 17.8738L0.0459868 17.82L0.0605565 17.7831L0.0605724 17.7831C0.134908 17.595 0.207565 17.4111 0.282922 17.2284C0.823784 15.9172 1.36473 14.6061 1.90577 13.2951C2.62206 11.5606 3.33769 9.82582 4.05267 8.0909C5.11357 5.51655 6.21043 2.85472 7.29697 0.191488C7.36081 0.0347642 7.41043 0 7.57349 0H7.57795C9.95146 0.00896692 12.4602 0.00896693 15.0338 0.000556574C15.208 -0.00336246 15.2593 0.0328045 15.3201 0.185327C17.1395 4.75001 18.9959 9.38873 20.7913 13.8744L21.3435 15.2543ZM11.0695 5.62365L9.29726 10.6546H13.0506L11.3416 5.64777L11.0695 5.62365ZM37.0679 11.0934L37.7642 9.52388L37.8311 9.53819V9.82388L37.8314 11.4906C37.8318 13.5464 37.8323 15.6022 37.8264 17.6582C37.8258 17.8814 37.8855 17.9437 38.1082 17.9423C39.3518 17.9352 40.5955 17.936 41.8392 17.9367C42.2281 17.937 42.6171 17.9372 43.006 17.9372H43.2683V2.51578C43.2419 2.50432 43.2142 2.49612 43.1858 2.49138L42.0418 2.49044C40.2347 2.48886 38.7102 2.48752 36.7588 2.49334C36.7155 2.50066 36.6745 2.5179 36.6389 2.54372C36.6034 2.56953 36.5742 2.60324 36.5536 2.64222C35.8832 4.17361 34.2653 7.04806 33.5316 8.35157C33.3165 8.73363 33.1775 8.98073 33.1605 9.0195C33.1518 9.00232 33.0895 8.89571 32.9869 8.72002C32.398 7.71192 30.4805 4.42916 29.7316 2.71035C29.7099 2.63504 29.662 2.57008 29.5967 2.52731C29.5313 2.48454 29.4529 2.46682 29.3757 2.47736C27.1398 2.48381 25.5443 2.48829 23.3085 2.48829H23.044V17.9372H23.3066C23.7034 17.9372 24.1002 17.9369 24.497 17.9365H24.497H24.4971H24.4971H24.4971C25.7249 17.9354 26.9527 17.9343 28.1804 17.9437C28.4293 17.9453 28.4873 17.8753 28.4865 17.6316C28.4795 15.5796 28.48 13.5279 28.4806 11.4761L28.4806 11.4556C28.4807 10.9028 28.4809 10.35 28.4809 9.79725V9.53258L28.5447 9.52838C28.5625 9.56905 28.5805 9.60965 28.5984 9.65024L28.5985 9.65034C28.6389 9.74175 28.6793 9.83309 28.7181 9.9251C29.7647 12.4093 30.809 14.8944 31.8509 17.3804C31.8661 17.438 31.9013 17.4882 31.9501 17.5219C31.999 17.5556 32.0582 17.5705 32.1171 17.564C32.7524 17.5551 33.3879 17.5562 34.0232 17.5632C34.082 17.5694 34.1411 17.5546 34.19 17.5212C34.239 17.4879 34.2747 17.4382 34.2908 17.381C35.2151 15.2844 36.1408 13.1886 37.0679 11.0934ZM80.9682 7.01052C80.5526 5.39308 79.4591 4.31786 78.0461 3.5418C76.6532 2.77667 75.1419 2.4548 73.565 2.46798C72.0435 2.48058 70.5221 2.47156 69.0006 2.46253C67.2717 2.45228 65.5428 2.44202 63.814 2.4635C63.7828 2.46387 63.7518 2.46711 63.7142 2.47103C63.6943 2.47311 63.6726 2.47538 63.6481 2.47751V17.9662H69.8388V14.419L69.8086 10.334C69.8059 10.3357 69.8031 10.3368 69.8003 10.3385V7.0523C70.0132 6.85556 70.24 6.67138 70.4613 6.49159L70.4614 6.49153L70.4615 6.49147L70.4615 6.49142C70.8966 6.13809 71.3108 5.80171 71.5578 5.42027C71.7571 5.11251 71.8881 4.80254 71.9895 4.56261C72.0987 4.30397 72.1736 4.1267 72.2627 4.12132C72.5939 4.10169 72.69 5.41495 72.69 5.41495C72.69 5.41495 73.1068 4.90663 73.4201 4.8099C73.6294 4.74514 73.8295 4.85476 73.6144 5.19514C73.5229 5.32764 73.4469 5.47025 73.3877 5.62017C73.3414 5.79066 73.3197 5.96693 73.3231 6.14362C74.2822 6.45792 74.3901 6.84371 74.3901 6.84371C74.4103 6.99443 74.4813 7.13364 74.5911 7.23816C74.701 7.34267 74.8431 7.40621 74.9939 7.41818C75.4144 7.49079 75.8262 7.60711 76.2228 7.76528C76.5927 7.83986 76.4015 8.36303 76.2677 8.34004C76.287 9.79403 75.0259 9.90281 74.3023 9.76852C74.3023 9.76852 70.4545 8.9762 70.7773 13.5504C70.9324 13.5571 71.0876 13.5642 71.2427 13.5714L71.2431 13.5714L71.2435 13.5714L71.2439 13.5714C72.7522 13.6407 74.2608 13.7099 75.7554 13.3861C77.3729 13.0357 78.8274 12.3687 79.9343 11.0899C80.9548 9.91151 81.3632 8.54723 80.9682 7.01052ZM62.1939 2.48653V17.9646L57.041 17.9646V8.49821C56.7988 8.97204 52.5262 15.9656 51.3859 17.7812C51.3714 17.8392 51.3365 17.89 51.2876 17.924C51.2388 17.9581 51.1793 17.9731 51.1202 17.9663C49.6555 17.9632 48.7283 17.9663 47.7445 17.9697H47.7444H47.7443C46.9482 17.9724 46.115 17.9752 44.9299 17.975C44.8881 17.975 44.8465 17.972 44.805 17.969C44.7918 17.968 44.7786 17.9671 44.7654 17.9662C44.758 17.9657 44.7507 17.9653 44.7434 17.9649V2.48989H49.879V12.0443C49.9045 12.0248 50.6766 10.7512 51.6595 9.12995L51.6602 9.12883L51.6607 9.12794C53.0772 6.79139 54.9309 3.73371 55.6189 2.66653C55.6346 2.6055 55.6722 2.55245 55.7244 2.51758C55.7766 2.4827 55.8398 2.46845 55.9018 2.47757C57.0936 2.47969 58.4604 2.48104 59.6151 2.48217C61.0469 2.48358 62.1526 2.48467 62.1939 2.48653ZM93.7079 2.45978C93.6459 2.45063 93.5826 2.46487 93.5304 2.49975C93.4782 2.53463 93.4406 2.5877 93.4249 2.64875C92.7361 3.71712 90.8795 6.77971 89.4625 9.11708C88.481 10.7361 87.7105 12.0072 87.685 12.0265V2.47212H82.5494V17.9471C82.57 17.9482 82.5906 17.9497 82.6112 17.9512C82.6526 17.9542 82.6942 17.9572 82.7356 17.9572C83.9096 17.9574 84.7382 17.9547 85.5273 17.9521C85.8332 17.9511 86.1331 17.9501 86.4449 17.9493L89.4314 17.9488C90.1494 17.8285 91.0194 17.4419 91.1339 16.2817C91.0102 14.9915 91.7508 14.304 91.9479 14.1321C92.1268 13.9798 92.2972 13.8176 92.4583 13.6462C92.6091 13.561 92.8831 13.0547 92.8911 12.8264C92.8992 12.5979 92.5923 12.3523 92.5923 12.3523C92.4394 12.2152 92.2753 12.0912 92.1017 11.9817C91.7635 11.7493 91.7801 11.2301 91.7906 10.9019L91.7924 10.8445C91.801 10.5226 91.9267 10.4926 92.1929 10.4817C92.4442 10.4717 92.6167 10.3617 92.8343 10.223L92.8736 10.198C92.93 10.1622 92.9808 10.1232 93.031 10.0848L93.0311 10.0847C93.1918 9.96156 93.346 9.84334 93.656 9.84975C93.8984 9.85507 94.135 9.77537 94.3253 9.62434L94.3521 9.61564C94.3521 9.61564 94.5586 8.38987 94.7016 8.38651C94.8241 8.38363 95.1422 9.3818 95.4042 10.2039L95.4043 10.2041C95.4482 10.3419 95.4905 10.4746 95.53 10.5969L95.5493 10.6564C95.7306 11.2151 95.8787 11.6717 95.7998 12.6282L95.8043 12.6257C95.8043 12.6257 95.7079 13.8705 95.9261 14.5297C96.0681 14.8761 96.2643 15.1976 96.507 15.4818C97.2201 16.1475 97.7803 16.9617 98.1486 17.8675C98.1552 17.8831 98.1611 17.8989 98.1671 17.9147C98.1711 17.9255 98.1752 17.9363 98.1795 17.9471L98.8998 17.9468H100V2.46904C99.9594 2.46721 98.8954 2.46613 97.504 2.46471H97.5039C96.3321 2.46352 94.9282 2.46209 93.7079 2.45978ZM89.2334 17.9768L88.4557 17.9819C88.7144 18.0076 88.9751 18.0059 89.2334 17.9768Z" fill="white"/>
</svg>
